<?xml version="1.0" encoding="utf-8" standalone="no"?>
<!DOCTYPE svg PUBLIC "-//W3C//DTD SVG 1.1//EN"
  "http://www.w3.org/Graphics/SVG/1.1/DTD/svg11.dtd">
<svg height="267.035312pt" version="1.1" viewBox="0 0 401.920937 267.035312" width="401.920937pt" xmlns="http://www.w3.org/2000/svg" xmlns:xlink="http://www.w3.org/1999/xlink">
 <metadata>
  <rdf:RDF xmlns:cc="http://creativecommons.org/ns#" xmlns:dc="http://purl.org/dc/elements/1.1/" xmlns:rdf="http://www.w3.org/1999/02/22-rdf-syntax-ns#">
   <cc:Work>
    <dc:type rdf:resource="http://purl.org/dc/dcmitype/StillImage"/>
    <dc:date>2021-06-08T15:36:02.972375</dc:date>
    <dc:format>image/svg+xml</dc:format>
    <dc:creator>
     <cc:Agent>
      <dc:title>Matplotlib v3.4.2, https://matplotlib.org/</dc:title>
     </cc:Agent>
    </dc:creator>
   </cc:Work>
  </rdf:RDF>
 </metadata>
 <defs>
  <style type="text/css">*{stroke-linecap:butt;stroke-linejoin:round;}</style>
 </defs>
 <g id="figure_1">
  <g id="patch_1">
   <path d="M 0 267.035312 
L 401.920937 267.035312 
L 401.920937 0 
L 0 0 
z
" style="fill:none;"/>
  </g>
  <g id="axes_1">
   <g id="patch_2">
    <path d="M 59.920938 224.64 
L 394.720937 224.64 
L 394.720937 7.2 
L 59.920938 7.2 
z
" style="fill:#ffffff;"/>
   </g>
   <g id="PathCollection_1">
    <defs>
     <path d="M 0 3.535534 
C 0.937635 3.535534 1.836992 3.163008 2.5 2.5 
C 3.163008 1.836992 3.535534 0.937635 3.535534 0 
C 3.535534 -0.937635 3.163008 -1.836992 2.5 -2.5 
C 1.836992 -3.163008 0.937635 -3.535534 0 -3.535534 
C -0.937635 -3.535534 -1.836992 -3.163008 -2.5 -2.5 
C -3.163008 -1.836992 -3.535534 -0.937635 -3.535534 0 
C -3.535534 0.937635 -3.163008 1.836992 -2.5 2.5 
C -1.836992 3.163008 -0.937635 3.535534 0 3.535534 
z
" id="md9ac2b6d6f" style="stroke:#ffa500;stroke-width:2;"/>
    </defs>
    <g clip-path="url(#pc70300173f)">
     <use style="fill:#ffffff;stroke:#ffa500;stroke-width:2;" x="314.940772" xlink:href="#md9ac2b6d6f" y="199.171253"/>
     <use style="fill:#ffffff;stroke:#ffa500;stroke-width:2;" x="188.891185" xlink:href="#md9ac2b6d6f" y="29.29195"/>
     <use style="fill:#ffffff;stroke:#ffa500;stroke-width:2;" x="201.188706" xlink:href="#md9ac2b6d6f" y="42.306569"/>
     <use style="fill:#ffffff;stroke:#ffa500;stroke-width:2;" x="247.304409" xlink:href="#md9ac2b6d6f" y="128.870394"/>
     <use style="fill:#ffffff;stroke:#ffa500;stroke-width:2;" x="271.89945" xlink:href="#md9ac2b6d6f" y="214.756364"/>
     <use style="fill:#ffffff;stroke:#ffa500;stroke-width:2;" x="195.039946" xlink:href="#md9ac2b6d6f" y="57.880854"/>
     <use style="fill:#ffffff;stroke:#ffa500;stroke-width:2;" x="327.238293" xlink:href="#md9ac2b6d6f" y="185.729682"/>
     <use style="fill:#ffffff;stroke:#ffa500;stroke-width:2;" x="179.668045" xlink:href="#md9ac2b6d6f" y="53.419178"/>
     <use style="fill:#ffffff;stroke:#ffa500;stroke-width:2;" x="228.858128" xlink:href="#md9ac2b6d6f" y="94.006012"/>
     <use style="fill:#ffffff;stroke:#ffa500;stroke-width:2;" x="81.28788" xlink:href="#md9ac2b6d6f" y="96.139261"/>
     <use style="fill:#ffffff;stroke:#ffa500;stroke-width:2;" x="271.89945" xlink:href="#md9ac2b6d6f" y="138.660421"/>
    </g>
   </g>
   <g id="matplotlib.axis_1">
    <g id="xtick_1">
     <g id="line2d_1">
      <path clip-path="url(#pc70300173f)" d="M 75.139119 224.64 
L 75.139119 7.2 
" style="fill:none;stroke:#93939c;stroke-dasharray:2.96,1.28;stroke-dashoffset:0;stroke-opacity:0.2;stroke-width:0.8;"/>
     </g>
     <g id="line2d_2">
      <defs>
       <path d="M 0 0 
L 0 3.5 
" id="m866fb984f0" style="stroke:#707074;stroke-width:0.8;"/>
      </defs>
      <g>
       <use style="fill:#707074;stroke:#707074;stroke-width:0.8;" x="75.139119" xlink:href="#m866fb984f0" y="224.64"/>
      </g>
     </g>
     <g id="text_1">
      <!-- 0.0 -->
      <g style="fill:#707074;" transform="translate(65.597244 240.758125)scale(0.12 -0.12)">
       <defs>
        <path d="M 2034 4250 
Q 1547 4250 1301 3770 
Q 1056 3291 1056 2328 
Q 1056 1369 1301 889 
Q 1547 409 2034 409 
Q 2525 409 2770 889 
Q 3016 1369 3016 2328 
Q 3016 3291 2770 3770 
Q 2525 4250 2034 4250 
z
M 2034 4750 
Q 2819 4750 3233 4129 
Q 3647 3509 3647 2328 
Q 3647 1150 3233 529 
Q 2819 -91 2034 -91 
Q 1250 -91 836 529 
Q 422 1150 422 2328 
Q 422 3509 836 4129 
Q 1250 4750 2034 4750 
z
" id="DejaVuSans-30" transform="scale(0.015625)"/>
        <path d="M 684 794 
L 1344 794 
L 1344 0 
L 684 0 
L 684 794 
z
" id="DejaVuSans-2e" transform="scale(0.015625)"/>
       </defs>
       <use xlink:href="#DejaVuSans-30"/>
       <use x="63.623047" xlink:href="#DejaVuSans-2e"/>
       <use x="95.410156" xlink:href="#DejaVuSans-30"/>
      </g>
     </g>
    </g>
    <g id="xtick_2">
     <g id="line2d_3">
      <path clip-path="url(#pc70300173f)" d="M 136.011847 224.64 
L 136.011847 7.2 
" style="fill:none;stroke:#93939c;stroke-dasharray:2.96,1.28;stroke-dashoffset:0;stroke-opacity:0.2;stroke-width:0.8;"/>
     </g>
     <g id="line2d_4">
      <g>
       <use style="fill:#707074;stroke:#707074;stroke-width:0.8;" x="136.011847" xlink:href="#m866fb984f0" y="224.64"/>
      </g>
     </g>
     <g id="text_2">
      <!-- 0.2 -->
      <g style="fill:#707074;" transform="translate(126.469972 240.758125)scale(0.12 -0.12)">
       <defs>
        <path d="M 1228 531 
L 3431 531 
L 3431 0 
L 469 0 
L 469 531 
Q 828 903 1448 1529 
Q 2069 2156 2228 2338 
Q 2531 2678 2651 2914 
Q 2772 3150 2772 3378 
Q 2772 3750 2511 3984 
Q 2250 4219 1831 4219 
Q 1534 4219 1204 4116 
Q 875 4013 500 3803 
L 500 4441 
Q 881 4594 1212 4672 
Q 1544 4750 1819 4750 
Q 2544 4750 2975 4387 
Q 3406 4025 3406 3419 
Q 3406 3131 3298 2873 
Q 3191 2616 2906 2266 
Q 2828 2175 2409 1742 
Q 1991 1309 1228 531 
z
" id="DejaVuSans-32" transform="scale(0.015625)"/>
       </defs>
       <use xlink:href="#DejaVuSans-30"/>
       <use x="63.623047" xlink:href="#DejaVuSans-2e"/>
       <use x="95.410156" xlink:href="#DejaVuSans-32"/>
      </g>
     </g>
    </g>
    <g id="xtick_3">
     <g id="line2d_5">
      <path clip-path="url(#pc70300173f)" d="M 196.884574 224.64 
L 196.884574 7.2 
" style="fill:none;stroke:#93939c;stroke-dasharray:2.96,1.28;stroke-dashoffset:0;stroke-opacity:0.2;stroke-width:0.8;"/>
     </g>
     <g id="line2d_6">
      <g>
       <use style="fill:#707074;stroke:#707074;stroke-width:0.8;" x="196.884574" xlink:href="#m866fb984f0" y="224.64"/>
      </g>
     </g>
     <g id="text_3">
      <!-- 0.4 -->
      <g style="fill:#707074;" transform="translate(187.342699 240.758125)scale(0.12 -0.12)">
       <defs>
        <path d="M 2419 4116 
L 825 1625 
L 2419 1625 
L 2419 4116 
z
M 2253 4666 
L 3047 4666 
L 3047 1625 
L 3713 1625 
L 3713 1100 
L 3047 1100 
L 3047 0 
L 2419 0 
L 2419 1100 
L 313 1100 
L 313 1709 
L 2253 4666 
z
" id="DejaVuSans-34" transform="scale(0.015625)"/>
       </defs>
       <use xlink:href="#DejaVuSans-30"/>
       <use x="63.623047" xlink:href="#DejaVuSans-2e"/>
       <use x="95.410156" xlink:href="#DejaVuSans-34"/>
      </g>
     </g>
    </g>
    <g id="xtick_4">
     <g id="line2d_7">
      <path clip-path="url(#pc70300173f)" d="M 257.757301 224.64 
L 257.757301 7.2 
" style="fill:none;stroke:#93939c;stroke-dasharray:2.96,1.28;stroke-dashoffset:0;stroke-opacity:0.2;stroke-width:0.8;"/>
     </g>
     <g id="line2d_8">
      <g>
       <use style="fill:#707074;stroke:#707074;stroke-width:0.8;" x="257.757301" xlink:href="#m866fb984f0" y="224.64"/>
      </g>
     </g>
     <g id="text_4">
      <!-- 0.6 -->
      <g style="fill:#707074;" transform="translate(248.215426 240.758125)scale(0.12 -0.12)">
       <defs>
        <path d="M 2113 2584 
Q 1688 2584 1439 2293 
Q 1191 2003 1191 1497 
Q 1191 994 1439 701 
Q 1688 409 2113 409 
Q 2538 409 2786 701 
Q 3034 994 3034 1497 
Q 3034 2003 2786 2293 
Q 2538 2584 2113 2584 
z
M 3366 4563 
L 3366 3988 
Q 3128 4100 2886 4159 
Q 2644 4219 2406 4219 
Q 1781 4219 1451 3797 
Q 1122 3375 1075 2522 
Q 1259 2794 1537 2939 
Q 1816 3084 2150 3084 
Q 2853 3084 3261 2657 
Q 3669 2231 3669 1497 
Q 3669 778 3244 343 
Q 2819 -91 2113 -91 
Q 1303 -91 875 529 
Q 447 1150 447 2328 
Q 447 3434 972 4092 
Q 1497 4750 2381 4750 
Q 2619 4750 2861 4703 
Q 3103 4656 3366 4563 
z
" id="DejaVuSans-36" transform="scale(0.015625)"/>
       </defs>
       <use xlink:href="#DejaVuSans-30"/>
       <use x="63.623047" xlink:href="#DejaVuSans-2e"/>
       <use x="95.410156" xlink:href="#DejaVuSans-36"/>
      </g>
     </g>
    </g>
    <g id="xtick_5">
     <g id="line2d_9">
      <path clip-path="url(#pc70300173f)" d="M 318.630028 224.64 
L 318.630028 7.2 
" style="fill:none;stroke:#93939c;stroke-dasharray:2.96,1.28;stroke-dashoffset:0;stroke-opacity:0.2;stroke-width:0.8;"/>
     </g>
     <g id="line2d_10">
      <g>
       <use style="fill:#707074;stroke:#707074;stroke-width:0.8;" x="318.630028" xlink:href="#m866fb984f0" y="224.64"/>
      </g>
     </g>
     <g id="text_5">
      <!-- 0.8 -->
      <g style="fill:#707074;" transform="translate(309.088153 240.758125)scale(0.12 -0.12)">
       <defs>
        <path d="M 2034 2216 
Q 1584 2216 1326 1975 
Q 1069 1734 1069 1313 
Q 1069 891 1326 650 
Q 1584 409 2034 409 
Q 2484 409 2743 651 
Q 3003 894 3003 1313 
Q 3003 1734 2745 1975 
Q 2488 2216 2034 2216 
z
M 1403 2484 
Q 997 2584 770 2862 
Q 544 3141 544 3541 
Q 544 4100 942 4425 
Q 1341 4750 2034 4750 
Q 2731 4750 3128 4425 
Q 3525 4100 3525 3541 
Q 3525 3141 3298 2862 
Q 3072 2584 2669 2484 
Q 3125 2378 3379 2068 
Q 3634 1759 3634 1313 
Q 3634 634 3220 271 
Q 2806 -91 2034 -91 
Q 1263 -91 848 271 
Q 434 634 434 1313 
Q 434 1759 690 2068 
Q 947 2378 1403 2484 
z
M 1172 3481 
Q 1172 3119 1398 2916 
Q 1625 2713 2034 2713 
Q 2441 2713 2670 2916 
Q 2900 3119 2900 3481 
Q 2900 3844 2670 4047 
Q 2441 4250 2034 4250 
Q 1625 4250 1398 4047 
Q 1172 3844 1172 3481 
z
" id="DejaVuSans-38" transform="scale(0.015625)"/>
       </defs>
       <use xlink:href="#DejaVuSans-30"/>
       <use x="63.623047" xlink:href="#DejaVuSans-2e"/>
       <use x="95.410156" xlink:href="#DejaVuSans-38"/>
      </g>
     </g>
    </g>
    <g id="xtick_6">
     <g id="line2d_11">
      <path clip-path="url(#pc70300173f)" d="M 379.502756 224.64 
L 379.502756 7.2 
" style="fill:none;stroke:#93939c;stroke-dasharray:2.96,1.28;stroke-dashoffset:0;stroke-opacity:0.2;stroke-width:0.8;"/>
     </g>
     <g id="line2d_12">
      <g>
       <use style="fill:#707074;stroke:#707074;stroke-width:0.8;" x="379.502756" xlink:href="#m866fb984f0" y="224.64"/>
      </g>
     </g>
     <g id="text_6">
      <!-- 1.0 -->
      <g style="fill:#707074;" transform="translate(369.960881 240.758125)scale(0.12 -0.12)">
       <defs>
        <path d="M 794 531 
L 1825 531 
L 1825 4091 
L 703 3866 
L 703 4441 
L 1819 4666 
L 2450 4666 
L 2450 531 
L 3481 531 
L 3481 0 
L 794 0 
L 794 531 
z
" id="DejaVuSans-31" transform="scale(0.015625)"/>
       </defs>
       <use xlink:href="#DejaVuSans-31"/>
       <use x="63.623047" xlink:href="#DejaVuSans-2e"/>
       <use x="95.410156" xlink:href="#DejaVuSans-30"/>
      </g>
     </g>
    </g>
    <g id="text_7">
     <!-- $x_n$ -->
     <g style="fill:#707074;" transform="translate(220.365938 257.131719)scale(0.13 -0.13)">
      <defs>
       <path d="M 3841 3500 
L 2234 1784 
L 3219 0 
L 2559 0 
L 1819 1388 
L 531 0 
L -166 0 
L 1556 1844 
L 641 3500 
L 1300 3500 
L 1972 2234 
L 3144 3500 
L 3841 3500 
z
" id="DejaVuSans-Oblique-78" transform="scale(0.015625)"/>
       <path d="M 3566 2113 
L 3156 0 
L 2578 0 
L 2988 2091 
Q 3016 2238 3031 2350 
Q 3047 2463 3047 2528 
Q 3047 2791 2881 2937 
Q 2716 3084 2419 3084 
Q 1956 3084 1622 2776 
Q 1288 2469 1184 1941 
L 800 0 
L 225 0 
L 903 3500 
L 1478 3500 
L 1363 2950 
Q 1603 3253 1940 3418 
Q 2278 3584 2650 3584 
Q 3113 3584 3367 3334 
Q 3622 3084 3622 2631 
Q 3622 2519 3608 2391 
Q 3594 2263 3566 2113 
z
" id="DejaVuSans-Oblique-6e" transform="scale(0.015625)"/>
      </defs>
      <use transform="translate(0 0.3125)" xlink:href="#DejaVuSans-Oblique-78"/>
      <use transform="translate(59.179688 -16.09375)scale(0.7)" xlink:href="#DejaVuSans-Oblique-6e"/>
     </g>
    </g>
   </g>
   <g id="matplotlib.axis_2">
    <g id="ytick_1">
     <g id="line2d_13">
      <path clip-path="url(#pc70300173f)" d="M 59.920938 204.236317 
L 394.720937 204.236317 
" style="fill:none;stroke:#93939c;stroke-dasharray:2.96,1.28;stroke-dashoffset:0;stroke-opacity:0.2;stroke-width:0.8;"/>
     </g>
     <g id="line2d_14">
      <defs>
       <path d="M 0 0 
L -3.5 0 
" id="m50f34ab303" style="stroke:#707074;stroke-width:0.8;"/>
      </defs>
      <g>
       <use style="fill:#707074;stroke:#707074;stroke-width:0.8;" x="59.920938" xlink:href="#m50f34ab303" y="204.236317"/>
      </g>
     </g>
     <g id="text_8">
      <!-- −1.5 -->
      <g style="fill:#707074;" transform="translate(23.781563 208.795379)scale(0.12 -0.12)">
       <defs>
        <path d="M 678 2272 
L 4684 2272 
L 4684 1741 
L 678 1741 
L 678 2272 
z
" id="DejaVuSans-2212" transform="scale(0.015625)"/>
        <path d="M 691 4666 
L 3169 4666 
L 3169 4134 
L 1269 4134 
L 1269 2991 
Q 1406 3038 1543 3061 
Q 1681 3084 1819 3084 
Q 2600 3084 3056 2656 
Q 3513 2228 3513 1497 
Q 3513 744 3044 326 
Q 2575 -91 1722 -91 
Q 1428 -91 1123 -41 
Q 819 9 494 109 
L 494 744 
Q 775 591 1075 516 
Q 1375 441 1709 441 
Q 2250 441 2565 725 
Q 2881 1009 2881 1497 
Q 2881 1984 2565 2268 
Q 2250 2553 1709 2553 
Q 1456 2553 1204 2497 
Q 953 2441 691 2322 
L 691 4666 
z
" id="DejaVuSans-35" transform="scale(0.015625)"/>
       </defs>
       <use xlink:href="#DejaVuSans-2212"/>
       <use x="83.789062" xlink:href="#DejaVuSans-31"/>
       <use x="147.412109" xlink:href="#DejaVuSans-2e"/>
       <use x="179.199219" xlink:href="#DejaVuSans-35"/>
      </g>
     </g>
    </g>
    <g id="ytick_2">
     <g id="line2d_15">
      <path clip-path="url(#pc70300173f)" d="M 59.920938 166.803896 
L 394.720937 166.803896 
" style="fill:none;stroke:#93939c;stroke-dasharray:2.96,1.28;stroke-dashoffset:0;stroke-opacity:0.2;stroke-width:0.8;"/>
     </g>
     <g id="line2d_16">
      <g>
       <use style="fill:#707074;stroke:#707074;stroke-width:0.8;" x="59.920938" xlink:href="#m50f34ab303" y="166.803896"/>
      </g>
     </g>
     <g id="text_9">
      <!-- −1.0 -->
      <g style="fill:#707074;" transform="translate(23.781563 171.362959)scale(0.12 -0.12)">
       <use xlink:href="#DejaVuSans-2212"/>
       <use x="83.789062" xlink:href="#DejaVuSans-31"/>
       <use x="147.412109" xlink:href="#DejaVuSans-2e"/>
       <use x="179.199219" xlink:href="#DejaVuSans-30"/>
      </g>
     </g>
    </g>
    <g id="ytick_3">
     <g id="line2d_17">
      <path clip-path="url(#pc70300173f)" d="M 59.920938 129.371475 
L 394.720937 129.371475 
" style="fill:none;stroke:#93939c;stroke-dasharray:2.96,1.28;stroke-dashoffset:0;stroke-opacity:0.2;stroke-width:0.8;"/>
     </g>
     <g id="line2d_18">
      <g>
       <use style="fill:#707074;stroke:#707074;stroke-width:0.8;" x="59.920938" xlink:href="#m50f34ab303" y="129.371475"/>
      </g>
     </g>
     <g id="text_10">
      <!-- −0.5 -->
      <g style="fill:#707074;" transform="translate(23.781563 133.930538)scale(0.12 -0.12)">
       <use xlink:href="#DejaVuSans-2212"/>
       <use x="83.789062" xlink:href="#DejaVuSans-30"/>
       <use x="147.412109" xlink:href="#DejaVuSans-2e"/>
       <use x="179.199219" xlink:href="#DejaVuSans-35"/>
      </g>
     </g>
    </g>
    <g id="ytick_4">
     <g id="line2d_19">
      <path clip-path="url(#pc70300173f)" d="M 59.920938 91.939055 
L 394.720937 91.939055 
" style="fill:none;stroke:#93939c;stroke-dasharray:2.96,1.28;stroke-dashoffset:0;stroke-opacity:0.2;stroke-width:0.8;"/>
     </g>
     <g id="line2d_20">
      <g>
       <use style="fill:#707074;stroke:#707074;stroke-width:0.8;" x="59.920938" xlink:href="#m50f34ab303" y="91.939055"/>
      </g>
     </g>
     <g id="text_11">
      <!-- 0.0 -->
      <g style="fill:#707074;" transform="translate(33.837187 96.498117)scale(0.12 -0.12)">
       <use xlink:href="#DejaVuSans-30"/>
       <use x="63.623047" xlink:href="#DejaVuSans-2e"/>
       <use x="95.410156" xlink:href="#DejaVuSans-30"/>
      </g>
     </g>
    </g>
    <g id="ytick_5">
     <g id="line2d_21">
      <path clip-path="url(#pc70300173f)" d="M 59.920938 54.506634 
L 394.720937 54.506634 
" style="fill:none;stroke:#93939c;stroke-dasharray:2.96,1.28;stroke-dashoffset:0;stroke-opacity:0.2;stroke-width:0.8;"/>
     </g>
     <g id="line2d_22">
      <g>
       <use style="fill:#707074;stroke:#707074;stroke-width:0.8;" x="59.920938" xlink:href="#m50f34ab303" y="54.506634"/>
      </g>
     </g>
     <g id="text_12">
      <!-- 0.5 -->
      <g style="fill:#707074;" transform="translate(33.837187 59.065696)scale(0.12 -0.12)">
       <use xlink:href="#DejaVuSans-30"/>
       <use x="63.623047" xlink:href="#DejaVuSans-2e"/>
       <use x="95.410156" xlink:href="#DejaVuSans-35"/>
      </g>
     </g>
    </g>
    <g id="ytick_6">
     <g id="line2d_23">
      <path clip-path="url(#pc70300173f)" d="M 59.920938 17.074213 
L 394.720937 17.074213 
" style="fill:none;stroke:#93939c;stroke-dasharray:2.96,1.28;stroke-dashoffset:0;stroke-opacity:0.2;stroke-width:0.8;"/>
     </g>
     <g id="line2d_24">
      <g>
       <use style="fill:#707074;stroke:#707074;stroke-width:0.8;" x="59.920938" xlink:href="#m50f34ab303" y="17.074213"/>
      </g>
     </g>
     <g id="text_13">
      <!-- 1.0 -->
      <g style="fill:#707074;" transform="translate(33.837187 21.633275)scale(0.12 -0.12)">
       <use xlink:href="#DejaVuSans-31"/>
       <use x="63.623047" xlink:href="#DejaVuSans-2e"/>
       <use x="95.410156" xlink:href="#DejaVuSans-30"/>
      </g>
     </g>
    </g>
    <g id="text_14">
     <!-- $t_n$ -->
     <g style="fill:#707074;" transform="translate(17.077969 121.575)rotate(-90)scale(0.13 -0.13)">
      <defs>
       <path d="M 2706 3500 
L 2619 3053 
L 1472 3053 
L 1100 1153 
Q 1081 1047 1072 975 
Q 1063 903 1063 863 
Q 1063 663 1183 572 
Q 1303 481 1569 481 
L 2150 481 
L 2053 0 
L 1503 0 
Q 991 0 739 200 
Q 488 400 488 806 
Q 488 878 497 964 
Q 506 1050 525 1153 
L 897 3053 
L 409 3053 
L 500 3500 
L 978 3500 
L 1172 4494 
L 1747 4494 
L 1556 3500 
L 2706 3500 
z
" id="DejaVuSans-Oblique-74" transform="scale(0.015625)"/>
      </defs>
      <use transform="translate(0 0.78125)" xlink:href="#DejaVuSans-Oblique-74"/>
      <use transform="translate(39.208984 -15.625)scale(0.7)" xlink:href="#DejaVuSans-Oblique-6e"/>
     </g>
    </g>
   </g>
   <g id="line2d_25">
    <path clip-path="url(#pc70300173f)" d="M 75.139119 91.939055 
L 78.213499 87.190833 
L 81.28788 82.461731 
L 84.36226 77.77079 
L 87.43664 73.1369 
L 90.51102 68.57872 
L 93.5854 64.114604 
L 96.65978 59.762527 
L 99.734161 55.540013 
L 102.808541 51.464065 
L 105.882921 47.551096 
L 108.957301 43.816862 
L 112.031681 40.276399 
L 115.106061 36.943963 
L 118.180442 33.832972 
L 121.254822 30.955955 
L 124.329202 28.324495 
L 127.403582 25.949188 
L 130.477962 23.839599 
L 133.552342 22.004223 
L 136.626723 20.45045 
L 139.701103 19.184535 
L 142.775483 18.211578 
L 145.849863 17.535495 
L 148.924243 17.159009 
L 151.998623 17.083636 
L 155.073004 17.30968 
L 158.147384 17.836229 
L 161.221764 18.661164 
L 164.296144 19.781164 
L 167.370524 21.191718 
L 170.444904 22.887146 
L 173.519285 24.860623 
L 176.593665 27.1042 
L 179.668045 29.608844 
L 182.742425 32.36447 
L 185.816805 35.359982 
L 188.891185 38.583318 
L 191.965566 42.021499 
L 195.039946 45.66068 
L 198.114326 49.486208 
L 201.188706 53.482678 
L 204.263086 57.633999 
L 207.337466 61.923454 
L 210.411847 66.333771 
L 213.486227 70.847191 
L 216.560607 75.445541 
L 219.634987 80.110305 
L 222.709367 84.822699 
L 225.783747 89.563748 
L 228.858128 94.314361 
L 231.932508 99.05541 
L 235.006888 103.767804 
L 238.081268 108.432568 
L 241.155648 113.030918 
L 244.230028 117.544338 
L 247.304409 121.954656 
L 250.378789 126.244111 
L 253.453169 130.395431 
L 256.527549 134.391901 
L 259.601929 138.217429 
L 262.676309 141.85661 
L 265.75069 145.294791 
L 268.82507 148.518127 
L 271.89945 151.513639 
L 274.97383 154.269265 
L 278.04821 156.773909 
L 281.12259 159.017487 
L 284.196971 160.990963 
L 287.271351 162.686391 
L 290.345731 164.096945 
L 293.420111 165.216945 
L 296.494491 166.04188 
L 299.568871 166.568429 
L 302.643252 166.794473 
L 305.717632 166.7191 
L 308.792012 166.342614 
L 311.866392 165.666531 
L 314.940772 164.693574 
L 318.015152 163.42766 
L 321.089533 161.873886 
L 324.163913 160.03851 
L 327.238293 157.928921 
L 330.312673 155.553614 
L 333.387053 152.922154 
L 336.461433 150.045137 
L 339.535814 146.934146 
L 342.610194 143.60171 
L 345.684574 140.061247 
L 348.758954 136.327013 
L 351.833334 132.414044 
L 354.907714 128.338096 
L 357.982095 124.115583 
L 361.056475 119.763505 
L 364.130855 115.299389 
L 367.205235 110.741209 
L 370.279615 106.107319 
L 373.353995 101.416379 
L 376.428376 96.687276 
L 379.502756 91.939055 
" style="fill:none;stroke:#00beff;stroke-linecap:square;stroke-width:2;"/>
   </g>
  </g>
 </g>
 <defs>
  <clipPath id="pc70300173f">
   <rect height="217.44" width="334.8" x="59.920938" y="7.2"/>
  </clipPath>
 </defs>
</svg>
