<?xml version="1.0" standalone="no"?>
<!DOCTYPE svg PUBLIC "-//W3C//DTD SVG 1.1//EN" "http://www.w3.org/Graphics/SVG/1.1/DTD/svg11.dtd">
<svg xmlns="http://www.w3.org/2000/svg">
<defs >
<font id="Archivo" horiz-adv-x="577" ><font-face
    font-family="Archivo SemiBold Black"
    units-per-em="1000"
    panose-1="0 0 0 0 0 0 0 0 0 0"
    ascent="878"
    descent="-210"
    alphabetic="0" />
<glyph unicode=" " horiz-adv-x="180" />
<glyph unicode="!" horiz-adv-x="333" d="M102 239L142 688H341L219 239H102ZM29 0L59 167H239L209 0H29Z" />
<glyph unicode="&quot;" horiz-adv-x="497" d="M127 398L106 541L132 688H295L269 541L195 398H127ZM346 398L325 541L351 688H514L488 541L414 398H346Z" />
<glyph unicode="#" horiz-adv-x="660" d="M92 -11L128 159H28V268H154L182 390H74V502H204L248 700H370L325 502H436L480 700H600L554 502H647V390H534L508 268H614V159H480L443 -11H326L363 159H248L212 -11H92ZM273 267H387L414 390H300L273 267Z" />
<glyph unicode="$" horiz-adv-x="610" d="M204 -67L350 756H428L282 -67H204ZM277 69Q232 69 188 77T107 102T48 147T26 214Q26 222 28 234T32 253H217Q215 248 214 243T213 234Q213 219 223 209T250 193T289 188Q302 188 317 189T347 195T370 208T379 228Q379
238 371 245T347 258T312 268T270 278Q237 286 203 295T139 319T91 359T73 421Q73 476 95 514T158 576T252 611T365 622Q407 622 448 615T523 592T578 551T599 489Q599 480 598 470T594 451H411Q412 456 412 459T412 464Q412 478 404 486T380 498T345 502Q335 502
323 501T298 497T279 486T271 467Q271 457 280 450T304 438T339 429Q373 422 414 414T492 392T553 350T577 278Q577 219 554 179T490 115T395 80T277 69Z" />
<glyph unicode="%" horiz-adv-x="1000" d="M189 0L729 688H838L300 0H189ZM252 342Q169 342 131 380T92 479Q92 490 93 501T96 523Q107 577 132 617T201 678T309 700Q392 700 429 663T467 564Q467 553 466 542T463 518Q453 465 428 426T360 364T252 342ZM721 -12Q638
-12 600 25T562 124Q562 135 563 146T566 169Q576 223 601 262T669 324T778 346Q861 346 899 309T937 209Q937 199 936 188T933 164Q923 111 898 72T830 10T721 -12ZM262 418Q295 418 312 443T336 505Q340 524 341 535T344 555T345 569Q345 594 335 609T298 624Q266
624 249 600T223 537Q220 519 218 508T215 489T214 476Q214 450 225 434T262 418ZM732 64Q769 64 785 92T812 183Q813 189 813 194T814 204T815 214Q815 239 805 254T768 270Q731 270 715 241T687 151Q686 146 686 141T685 131T684 121Q684 96 695 80T732 64Z"
/>
<glyph unicode="&amp;" horiz-adv-x="889" d="M382 -12Q271 -12 200 12T95 77T61 169Q61 213 80 250T134 316T213 357L214 361Q180 375 159 408T137 483Q137 537 166 577T246 645T360 686T491 700Q589 700 657 678T761 618T797 533Q797 525 796 513T790 487H613Q615
495 615 499T615 505Q615 521 601 533T559 552T487 559Q448 559 420 551T373 528T346 496T337 462Q337 445 345 434T368 417T398 412H502L480 289H354Q335 289 320 283T294 264T277 236T271 201Q271 180 283 164T324 139T400 129Q459 129 493 141T545 173T566 218L600
412H914L892 289H757L745 222Q732 151 691 98T575 17T382 -12Z" />
<glyph unicode="&apos;" horiz-adv-x="278" d="M127 398L106 541L132 688H295L269 541L195 398H127Z" />
<glyph unicode="(" horiz-adv-x="389" d="M156 -160Q86 -68 60 49T55 288Q70 370 105 450T192 603T314 737H434Q396 691 362 635T300 519T251 400T222 288Q210 217 212 137T231 -21T276 -160H156Z" />
<glyph unicode=")" horiz-adv-x="389" d="M242 738Q312 646 338 529T343 290Q329 208 294 128T206 -24T84 -159H-36Q2 -113 36 -57T98 59T147 178T176 290Q189 361 186 441T167 599T122 738H242Z" />
<glyph unicode="*" horiz-adv-x="407" d="M167 322L201 444L87 373L55 454L175 505L73 557L134 637L222 566L232 688H325L291 567L405 637L438 557L316 505L420 454L358 373L270 444L260 322H167Z" />
<glyph unicode="+" horiz-adv-x="660" d="M217 0L252 198H54L78 330H276L311 528H443L408 330H606L582 198H384L349 0H217Z" />
<glyph unicode="," horiz-adv-x="333" d="M-18 -192L-3 -107Q23 -105 49 -91T94 -52T119 0H16L51 199H263L232 23Q223 -30 199 -69T141 -134T66 -174T-18 -192Z" />
<glyph unicode="-" horiz-adv-x="333" d="M28 196L56 354H309L281 196H28Z" />
<glyph unicode="." horiz-adv-x="333" d="M14 0L50 199H262L226 0H14Z" />
<glyph unicode="/" horiz-adv-x="306" d="M-55 -48L264 736H389L71 -48H-55Z" />
<glyph unicode="0" horiz-adv-x="667" d="M295 -12Q204 -12 149 18T69 103T44 232Q44 250 45 269T49 309T56 350Q71 430 95 494T159 605T258 675T403 700Q495 700 549 671T628 587T653 460Q653 442 652 423T648 383T641 341Q626 261 602 196T538 85T440 13T295
-12ZM310 123Q342 123 363 135T398 178T425 261T452 394Q454 406 456 417T459 439T460 459T461 477Q461 524 444 544T388 565Q355 565 334 553T299 510T272 427T244 295Q242 283 241 272T238 251T237 232T236 214Q236 167 253 145T310 123Z" />
<glyph unicode="1" horiz-adv-x="667" d="M33 0L60 154H223L278 465H115L136 581Q171 583 212 593T295 618T377 651T450 689H517L422 154H579L552 0H33Z" />
<glyph unicode="2" horiz-adv-x="667" d="M-2 0L7 48Q16 94 44 134T112 209T197 277T287 337T368 393T427 447T449 501Q449 524 432 541T375 559Q344 559 320 547T281 514T261 465L258 445H77Q83 508 108 556T176 636T275 684T399 700Q474 700 530 677T618 612T650
516Q650 478 639 445T607 384T559 330T499 282T433 238T364 196Q355 191 345 183T327 169H598L568 0H-2Z" />
<glyph unicode="3" horiz-adv-x="667" d="M295 -12Q204 -12 145 10T56 70T27 156Q27 167 28 180T34 207H209Q208 202 208 197T207 186Q207 156 231 141T299 125Q337 125 364 138T406 176T421 233Q421 252 414 264T393 283T362 289H289L311 412H368Q386 412 401
418T428 436T446 464T452 498Q452 516 444 530T418 554T374 563Q346 563 325 554T291 530T274 497L272 487H104L108 512Q116 564 152 606T252 674T404 700Q483 700 538 679T623 620T653 535Q653 494 636 458T589 397T524 361L523 357Q567 340 591 305T616 220Q616
144 573 93T457 15T295 -12Z" />
<glyph unicode="4" horiz-adv-x="667" d="M312 0L337 141H2L28 290Q69 338 115 403T206 545T283 700H489Q479 667 454 625T394 536T320 444T243 358T171 288H363L386 422Q402 440 423 467T465 525T503 584T529 634H614L553 288H649L623 141H527L502 0H312Z" />
<glyph unicode="5" horiz-adv-x="667" d="M304 -12Q214 -12 152 12T58 79T26 181Q26 191 27 201T30 222H206Q205 217 205 213T204 203Q204 181 214 164T244 136T296 126Q325 126 348 135T387 162T413 202T422 250Q422 286 400 308T333 331Q300 331 279 321T247
300T228 281L74 303L171 688H647L617 518H290L263 414Q273 422 291 432T337 451T407 459Q472 459 519 436T593 371T620 269Q620 184 578 121T465 23T304 -12Z" />
<glyph unicode="6" horiz-adv-x="667" d="M296 -12Q212 -12 155 15T68 96T38 233Q38 256 40 282T48 336Q72 470 116 549T231 664T402 700Q475 700 531 679T618 617T650 513Q650 503 649 492T646 468H468Q469 475 469 481T470 492Q470 529 449 547T391 565Q351
565 326 547T286 490T260 387Q279 403 303 414T354 432T408 439Q470 439 518 418T595 358T624 260Q624 197 600 147T533 61T429 7T296 -12ZM310 123Q333 123 352 129T385 146Q406 162 417 187T428 244Q428 268 419 285T392 310T346 319Q321 319 301 312T265 290Q247
274 238 250T228 196Q228 173 237 157T264 132T310 123Z" />
<glyph unicode="7" horiz-adv-x="667" d="M101 0Q114 71 142 140T210 274T301 400T407 516H89L120 688H700L684 597Q638 550 594 501T512 399T442 291T387 178T353 59Q350 44 348 30T342 0H101Z" />
<glyph unicode="8" horiz-adv-x="667" d="M278 -12Q197 -12 137 8T44 66T11 160Q11 206 29 242T79 306T151 349Q120 373 105 404T90 471Q90 526 113 568T178 640T273 685T386 700Q454 700 509 680T597 620T630 525Q630 487 617 455T579 396T517 349Q553 331 577
298T602 216Q602 138 558 88T440 13T278 -12ZM293 123Q310 123 324 126T351 136T374 152Q388 165 396 182T404 221Q404 254 380 270T322 287Q307 287 293 284T266 274T243 258Q230 245 222 227T214 188Q214 156 235 140T293 123ZM344 414Q358 414 371 416T395 423T417
434Q434 445 444 462T454 504Q454 536 431 550T371 565Q355 565 341 562T315 554T294 541Q280 529 272 512T264 473Q264 442 287 428T344 414Z" />
<glyph unicode="9" horiz-adv-x="667" d="M288 -12Q215 -12 159 9T72 72T40 175Q40 186 41 197T44 220H222Q221 213 221 207T220 196Q220 159 241 141T299 123Q340 123 364 141T404 199T430 301Q411 285 387 274T337 256T282 249Q221 249 172 270T95 331T66 428Q66
491 90 541T157 627T261 681T394 700Q478 700 535 673T622 592T652 455Q652 432 650 406T642 352Q619 219 574 139T459 24T288 -12ZM344 369Q369 369 389 377T425 398Q443 415 452 438T462 492Q462 516 453 532T426 556T380 565Q357 565 338 559T305 542Q284 526
273 501T262 444Q262 420 271 404T299 378T344 369Z" />
<glyph unicode=":" horiz-adv-x="333" d="M74 328L110 528H322L286 328H74ZM16 0L52 199H264L228 0H16Z" />
<glyph unicode=";" horiz-adv-x="333" d="M-21 -192L-6 -107Q20 -105 46 -91T91 -52T116 0H13L48 199H260L229 23Q220 -30 196 -69T138 -134T63 -174T-21 -192ZM70 328L106 528H318L282 328H70Z" />
<glyph unicode="&lt;" horiz-adv-x="660" d="M534 -13L44 189L70 332L630 535L605 396L223 264L559 133L534 -13Z" />
<glyph unicode="=" horiz-adv-x="660" d="M74 311L98 443H626L602 311H74ZM34 85L58 217H586L562 85H34Z" />
<glyph unicode="&gt;" horiz-adv-x="660" d="M29 -13L55 137L437 268L101 400L125 535L615 332L589 189L29 -13Z" />
<glyph unicode="?" horiz-adv-x="611" d="M224 246L232 296Q235 315 248 332T280 364T319 396T358 429T387 465T398 507Q398 522 392 534T374 554T343 562Q328 562 315 557T290 540T272 514T261 480Q260 473 260 466T259 451H76Q76 499 91 538T135 607T200 658T283
689T378 700Q430 700 473 687T547 650T596 593T613 520Q613 481 598 450T559 395T508 352T457 318T416 291T398 267L395 246H224ZM171 0L204 185H402L369 0H171Z" />
<glyph unicode="@" horiz-adv-x="1010" d="M444 -158Q348 -158 272 -136T144 -68T64 45T36 205Q36 284 52 351T101 473T181 571T288 643T422 688T580 703Q667 703 741 685T869 629T954 532T985 391Q985 323 974 266T940 163T883 86T803 38T697 21Q662 21 635 31T589
57T561 89H555Q528 56 493 39T423 21Q373 21 338 41T284 100T265 196Q265 224 267 249T273 297Q283 353 303 395T352 465T413 507T483 521Q510 521 530 514T567 491T597 449H603L640 510H764L743 394Q738 365 733 334T722 274T713 220T707 180T704 160Q704 144
714 140T735 135Q770 135 793 151T832 193T855 253T867 320T870 387Q870 464 836 511T736 579T580 601Q496 601 428 584T308 533T221 451T169 343T151 211Q151 144 170 94T229 11T329 -39T472 -56Q493 -56 520 -54T575 -47T629 -37T672 -24L653 -127Q625 -135 588
-142T512 -154T444 -158ZM477 154Q504 154 521 168T549 205T565 256Q567 265 568 273T570 289T572 304T573 316Q573 337 568 353T551 379T518 388Q494 388 478 378T451 347T434 296Q432 285 430 274T427 252T424 233T423 218Q423 189 434 172T477 154Z" />
<glyph unicode="A" horiz-adv-x="778" d="M-37 0L337 688H594L722 0H495L483 97H241L195 0H-37ZM314 251H464L451 361Q449 378 447 395T443 428T438 462T434 496H430Q420 474 409 452T388 407T366 361L314 251Z" />
<glyph unicode="B" horiz-adv-x="778" d="M27 0L149 688H588Q652 688 691 666T749 608T768 534Q768 493 750 456T700 393T624 359L623 355Q667 341 697 307T728 215Q728 148 697 100T614 26T496 0H27ZM277 160H447Q467 160 480 170T501 196T508 232Q508 251 497
264T459 278H297L277 160ZM322 420H474Q491 420 503 425T522 441T533 463T537 489Q537 508 527 522T493 537H343L322 420Z" />
<glyph unicode="C" horiz-adv-x="778" d="M363 -12Q208 -12 129 56T50 257Q50 280 52 304T59 354Q79 468 130 545T264 661T458 700Q552 700 620 674T726 596T763 469Q763 454 762 438T757 405H546Q548 414 548 422T549 438Q549 468 538 489T504 523T448 535Q413
535 386 524T340 491T309 441T290 376Q285 345 282 326T277 295T275 276T274 263Q274 230 285 205T319 167T379 153Q423 153 454 168T504 211T531 279H735Q719 185 673 120T549 22T363 -12Z" />
<glyph unicode="D" horiz-adv-x="778" d="M28 0L149 688H437Q592 688 674 624T756 425Q756 404 755 382T748 334Q728 220 676 146T541 36T346 0H28ZM278 165H351Q388 165 416 175T464 204T497 251T516 314Q523 352 526 371T530 400T531 416Q531 450 519 474T481
510T414 523H341L278 165Z" />
<glyph unicode="E" horiz-adv-x="722" d="M27 0L149 688H744L715 523H341L324 428H644L616 270H296L277 165H658L629 0H27Z" />
<glyph unicode="F" horiz-adv-x="667" d="M27 0L149 688H705L676 523H341L320 405H608L580 247H292L248 0H27Z" />
<glyph unicode="G" horiz-adv-x="833" d="M350 -12Q207 -12 129 54T51 253Q51 306 58 353T80 441Q110 527 167 584T303 671T477 700Q547 700 607 687T711 646T780 579T805 485Q805 474 804 463T801 439H590Q591 443 591 446T591 454Q591 473 583 488T558 513T522
529T477 535Q438 535 407 525T352 493T313 443T291 376Q286 346 283 328T279 298T277 281T276 270Q276 233 291 207T335 167T410 153Q445 153 476 164T529 195T555 241L556 244H400L425 384H792L724 0H610L600 68Q566 42 527 24T445 -3T350 -12Z" />
<glyph unicode="H" horiz-adv-x="833" d="M27 0L149 688H370L325 437H568L613 688H834L712 0H491L537 261H294L248 0H27Z" />
<glyph unicode="I" horiz-adv-x="369" d="M27 0L149 688H370L248 0H27Z" />
<glyph unicode="J" horiz-adv-x="667" d="M267 -12Q142 -12 78 36T13 181Q13 197 15 213T20 248H227Q225 235 224 225T222 205Q222 177 235 165T277 153Q312 153 336 172T368 240L447 688H668L588 234Q573 146 531 92T422 13T267 -12Z" />
<glyph unicode="K" horiz-adv-x="833" d="M27 0L149 688H370L320 407L606 688H889L592 405L772 0H519L417 259L273 135L248 0H27Z" />
<glyph unicode="L" horiz-adv-x="667" d="M27 0L149 688H370L279 176H622L591 0H27Z" />
<glyph unicode="M" horiz-adv-x="972" d="M27 0L149 688H445L466 446Q467 434 469 405T475 343T479 281H485Q497 309 508 336T532 390T556 446L664 688H973L851 0H640L684 248Q691 286 699 328T717 409T734 476H727Q723 465 717 449T704 416T691 387L514 0H339L306
386Q305 408 303 430T298 475H292Q291 442 289 402T282 322T272 248L228 0H27Z" />
<glyph unicode="N" horiz-adv-x="833" d="M27 0L149 688H335L504 425Q515 409 526 391T548 355T567 323L572 325Q574 345 576 360T582 394L632 688H834L712 0H527L336 289Q327 303 315 323T294 359L289 358Q287 336 284 316T278 286L229 0H27Z" />
<glyph unicode="O" horiz-adv-x="833" d="M377 -12Q273 -12 200 19T88 111T50 264Q50 285 52 307T59 354Q79 468 131 545T270 661T482 700Q587 700 660 669T772 576T810 421Q810 401 808 379T802 334Q782 220 729 143T588 27T377 -12ZM396 153Q432 153 461 164T513
197T549 247T570 312Q575 341 578 359T582 389T584 406T585 417Q585 453 572 479T531 520T463 535Q427 535 398 524T347 491T311 441T290 376Q285 346 282 328T278 298T276 281T275 270Q275 235 288 209T328 168T396 153Z" />
<glyph unicode="P" horiz-adv-x="722" d="M27 0L149 688H547Q605 688 647 664T714 595T738 494Q738 437 720 388T667 301T585 243T478 222H287L248 0H27ZM316 383H431Q459 383 476 395T502 427T511 471Q511 497 496 511T449 525H341L316 383Z" />
<glyph unicode="Q" horiz-adv-x="833" d="M479 -131L383 -12Q382 -12 381 -12T377 -12Q273 -12 200 19T88 111T50 264Q50 285 52 307T59 354Q79 468 131 545T270 661T482 700Q587 700 660 669T772 576T810 421Q810 401 808 379T802 334Q782 223 731 147T596 31L725
-131H479ZM396 153Q432 153 461 164T513 197T549 247T570 312Q575 341 578 359T582 389T584 406T585 417Q585 453 572 479T531 520T463 535Q427 535 398 524T347 491T311 441T290 376Q285 346 282 328T278 298T276 281T275 270Q275 235 288 209T328 168T396 153Z"
/>
<glyph unicode="R" horiz-adv-x="778" d="M28 0L149 688H570Q640 688 686 664T754 601T777 512Q777 448 758 401T704 322T623 268L711 0H466L402 231H290L249 0H28ZM317 384H462Q482 384 502 395T535 427T548 473Q548 499 534 515T497 531H342L317 384Z" />
<glyph unicode="S" horiz-adv-x="722" d="M346 -12Q277 -12 218 -4T116 25T48 81T23 171Q23 185 24 201T30 233H239Q235 225 234 218T233 203Q233 180 246 168T282 151T334 146Q349 146 367 147T401 154T428 169T439 198Q439 214 425 224T387 242T333 256T271
271Q236 280 202 292T140 325T96 375T79 450Q79 519 108 566T185 643T292 686T411 700Q473 700 526 690T618 657T679 602T701 522Q701 514 700 504T696 476H489Q490 483 490 486T490 494Q490 517 473 533T413 550Q380 550 358 543T324 524T313 499Q313 486 321
477T344 461T379 448T425 437Q464 429 507 418T589 386T650 334T674 251Q674 186 648 137T575 54T470 5T346 -12Z" />
<glyph unicode="T" horiz-adv-x="722" d="M204 0L295 512H69L100 688H772L741 512H516L425 0H204Z" />
<glyph unicode="U" horiz-adv-x="833" d="M378 -12Q235 -12 153 45T71 218Q71 233 72 249T77 282L149 688H370L298 280Q297 272 296 264T295 248Q295 205 319 179T396 153Q457 153 494 189T541 280L613 688H834L760 267Q744 174 694 112T565 19T378 -12Z" />
<glyph unicode="V" horiz-adv-x="778" d="M215 0L93 688H321L360 370Q362 357 365 332T371 279T378 228H382Q394 252 405 275T427 323T450 370L602 688H836L471 0H215Z" />
<glyph unicode="W" horiz-adv-x="1000" d="M119 0L80 688H298L306 394Q307 378 307 362T307 330T308 298H312Q318 314 324 330T336 362T348 394L459 688H679L690 394Q691 378 691 362T692 330T693 298H697Q703 314 709 330T720 362T732 394L840 688H1070L783 0H544L528
322Q527 338 527 354T525 387T523 419H519Q513 403 507 387T494 355T481 322L358 0H119Z" />
<glyph unicode="X" horiz-adv-x="778" d="M-45 0L276 364L101 688H358L429 514H433L571 688H828L537 363L729 0H474L389 208H385L216 0H-45Z" />
<glyph unicode="Y" horiz-adv-x="778" d="M234 0L281 267L83 688H325L421 457H425L596 688H846L502 267L455 0H234Z" />
<glyph unicode="Z" horiz-adv-x="722" d="M-19 0L-4 80L381 523H98L127 688H762L748 609L362 165H677L648 0H-19Z" />
<glyph unicode="[" horiz-adv-x="389" d="M1 -160L159 737H432L414 634H300L178 -57H292L274 -160H1Z" />
<glyph unicode="\" horiz-adv-x="306" d="M135 -48L83 736H199L251 -48H135Z" />
<glyph unicode="]" horiz-adv-x="389" d="M396 734L238 -163H-35L-17 -60H97L219 631H105L123 734H396Z" />
<glyph unicode="^" horiz-adv-x="660" d="M99 337L334 688H477L588 337H449L385 549L246 337H99Z" />
<glyph unicode="_" horiz-adv-x="556" d="M-77 -180L-57 -62H499L478 -180H-77Z" />
<glyph unicode="`" horiz-adv-x="286" d="M210 592L81 721L84 725H279L344 592H210Z" />
<glyph unicode="a" horiz-adv-x="667" d="M225 -12Q163 -12 119 11T51 78T28 188Q28 207 29 228T35 273Q51 363 85 422T171 510T288 540Q323 540 351 532T401 507T441 461H448L494 528H651L627 400Q621 368 615 334T603 267T592 208T585 164T582 141Q582 127 589
121T607 114H636L617 8Q594 -1 568 -6T516 -12Q484 -12 459 -5T416 18Q407 26 402 38T392 64H385Q353 28 311 8T225 -12ZM297 135Q320 135 338 144T370 168T392 204T405 248Q409 270 411 282T413 302T414 314Q414 337 407 355T384 383T343 393Q312 393 291 381T258
345T239 291Q233 259 230 243T227 219T226 206Q226 173 242 154T297 135Z" />
<glyph unicode="b" horiz-adv-x="667" d="M370 -12Q315 -12 273 9T210 75H203L176 0H15L141 725H340L297 479H304Q322 499 345 512T394 533T447 540Q509 540 552 518T618 452T641 340Q641 321 639 300T633 255Q618 166 582 107T492 18T370 -12ZM323 135Q355 135
376 147T410 183T429 237Q435 269 438 285T441 309T442 322Q442 344 435 360T411 384T369 393Q345 393 327 384T295 360T273 324T260 280Q256 258 254 245T252 226T251 214Q251 191 258 173T281 145T323 135Z" />
<glyph unicode="c" horiz-adv-x="667" d="M296 -12Q214 -12 155 12T63 86T31 210Q31 230 32 249T37 287Q48 351 77 398T151 477T252 524T373 540Q449 540 508 520T603 460T638 361Q638 351 637 339T634 315H441Q442 321 442 327T443 338Q443 361 434 376T405 398T359
405Q324 405 300 392T262 353T241 292Q235 258 232 240T229 215T228 202Q228 177 237 160T265 133T314 123Q347 123 371 132T410 162T432 215H617Q603 135 557 85T442 11T296 -12Z" />
<glyph unicode="d" horiz-adv-x="667" d="M220 -12Q159 -12 116 10T50 78T27 192Q27 211 29 232T35 275Q47 341 69 391T123 474T199 523T297 540Q327 540 353 533T402 513T438 479H445L488 725H687L560 0H397V75H390Q356 30 313 9T220 -12ZM297 135Q329 135 351
150T387 190T406 247Q410 269 412 281T414 301T415 313Q415 336 408 354T385 382T343 393Q312 393 291 380T258 344T239 290Q233 258 230 242T227 218T226 205Q226 172 242 154T297 135Z" />
<glyph unicode="e" horiz-adv-x="667" d="M308 -12Q222 -12 160 11T65 83T31 207Q31 229 32 249T38 289Q53 373 98 428T211 512T363 540Q450 540 510 518T602 451T634 334Q634 318 632 296T622 230H226Q225 223 224 213T222 194Q222 169 231 151T260 124T311 115Q338
115 357 121T390 137T411 162T422 192H615Q607 145 584 107T522 43T430 2T308 -12ZM243 324H437Q438 329 438 335T439 345Q439 367 431 382T405 405T364 413Q331 413 307 402T268 372T243 324Z" />
<glyph unicode="f" horiz-adv-x="389" d="M31 -210Q15 -210 -8 -208T-53 -202T-90 -192L-69 -73H-17Q13 -73 29 -57T50 -9L120 393H46L70 528H144L148 550Q162 624 190 664T263 721T364 737Q381 737 403 735T446 728T479 719L458 602H412Q379 602 366 590T347
549L343 528H445L421 393H319L245 -29Q234 -93 208 -133T139 -191T31 -210Z" />
<glyph unicode="g" horiz-adv-x="666" d="M243 -209Q156 -209 103 -193T24 -146T-1 -74Q-1 -67 0 -51T8 -15H202Q201 -18 201 -22T200 -29Q200 -41 205 -50T224 -64T261 -70Q295 -70 316 -58T349 -27T364 15Q367 33 370 51T376 88H368Q347 68 322 55T271 35T216
28Q157 28 116 49T53 112T31 219Q31 236 32 254T38 293Q61 417 130 478T302 540Q355 540 393 518T452 453H459L489 528H651L564 34Q549 -52 505 -105T395 -184T243 -209ZM304 172Q327 172 345 180T376 204T398 237T410 275Q412 288 413 296T414 309T415 319Q415
340 408 356T384 382T342 392Q311 392 290 380T257 347T240 300Q236 279 235 268T233 251T232 241Q232 221 239 206T262 181T304 172Z" />
<glyph unicode="h" horiz-adv-x="667" d="M15 0L141 725H340L296 473H303Q324 495 351 509T409 532T469 540Q523 540 558 523T610 475T627 398Q627 385 626 371T622 342L562 0H363L419 318Q420 323 420 327T420 336Q420 353 414 366T396 386T365 393Q346 393 330
387T300 369T279 342T267 310L213 0H15Z" />
<glyph unicode="i" horiz-adv-x="319" d="M116 590L140 725H339L315 590H116ZM14 0L107 528H306L213 0H14Z" />
<glyph unicode="j" horiz-adv-x="316" d="M113 590L137 725H336L312 590H113ZM0 -210Q-17 -210 -42 -208T-91 -201T-130 -192L-109 -73H-57Q-27 -73 -11 -57T10 -9L105 528H304L205 -29Q194 -93 171 -133T106 -191T0 -210Z" />
<glyph unicode="k" horiz-adv-x="667" d="M13 0L141 726H340L269 326L474 528H706L471 319L618 0H402L321 188L232 114L212 0H13Z" />
<glyph unicode="l" horiz-adv-x="319" d="M13 0L141 725H340L212 0H13Z" />
<glyph unicode="m" horiz-adv-x="1000" d="M14 0L107 528H269V449H276Q299 479 329 499T393 530T461 540Q525 540 563 517T613 449H620Q644 479 673 499T736 530T802 540Q883 540 921 504T960 399Q960 386 959 372T955 342L895 0H696L752 318Q753 323 753 328T754
338Q754 355 748 367T731 386T702 393Q678 393 658 382T626 352T609 310L554 0H355L411 318Q412 323 412 328T413 338Q413 355 407 367T390 386T361 393Q337 393 317 382T285 352T268 310L213 0H14Z" />
<glyph unicode="n" horiz-adv-x="667" d="M14 0L107 528H269V448H276Q301 479 331 499T396 530T465 540Q521 540 556 523T609 475T627 398Q627 385 626 371T622 342L562 0H363L419 318Q420 323 420 328T421 337Q421 354 415 366T396 386T365 393Q346 393 330 387T301
369T280 342T268 310L213 0H14Z" />
<glyph unicode="o" horiz-adv-x="667" d="M294 -12Q213 -12 154 12T62 85T30 208Q30 229 31 249T37 287Q52 372 97 428T212 512T371 540Q453 540 512 516T604 442T637 318Q637 248 619 194T568 98Q538 61 496 37T404 0T294 -12ZM308 123Q343 123 367 136T405 175T426
235Q432 270 435 287T438 313T439 327Q439 352 431 369T404 395T357 405Q322 405 298 392T260 353T239 292Q233 258 230 240T227 214T226 201Q226 177 234 160T261 133T308 123Z" />
<glyph unicode="p" horiz-adv-x="667" d="M-19 -197L107 528H269L273 453H280Q314 500 356 520T447 540Q509 540 552 518T618 451T641 337Q641 318 639 297T633 253Q617 165 582 106T494 18T370 -12Q340 -12 313 -6T265 13T229 48H222L179 -197H-19ZM324 135Q356
135 377 148T410 184T429 238Q435 270 438 286T441 310T442 323Q442 345 435 360T412 384T370 393Q339 393 317 378T281 338T261 281Q257 259 255 246T253 227T252 215Q252 192 259 174T282 146T324 135Z" />
<glyph unicode="q" horiz-adv-x="667" d="M326 -197L369 48H362Q342 29 319 16T271 -5T220 -12Q159 -12 116 10T50 76T27 188Q27 207 29 228T35 273Q51 363 86 422T175 510T297 540Q352 540 393 518T453 453H460L490 528H652L525 -197H326ZM298 135Q321 135 339
144T371 168T393 204T406 248Q410 270 412 282T414 302T415 314Q415 337 408 355T385 383T344 393Q312 393 291 381T258 345T239 291Q233 259 230 243T227 219T226 206Q226 173 242 154T298 135Z" />
<glyph unicode="r" horiz-adv-x="444" d="M14 0L107 528H269V448H276Q294 478 318 499T371 530T430 541Q450 541 465 537T487 529L458 362H394Q362 362 338 354T297 329T270 289T254 235L213 0H14Z" />
<glyph unicode="s" horiz-adv-x="611" d="M263 -12Q218 -12 174 -4T93 21T34 66T12 133Q12 141 14 153T18 172H203Q201 167 200 162T199 153Q199 138 209 128T236 112T275 107Q288 107 303 108T333 114T356 127T365 147Q365 157 357 164T333 177T298 187T256 197Q223
205 189 214T125 238T77 278T59 340Q59 395 81 433T144 495T238 530T351 541Q393 541 434 534T509 511T564 470T585 408Q585 399 584 389T580 370H397Q398 375 398 378T398 383Q398 397 390 405T366 417T331 421Q321 421 309 420T284 416T265 405T257 386Q257 376
266 369T290 357T325 348Q359 341 400 333T478 311T539 269T563 197Q563 138 540 98T476 34T381 -1T263 -12Z" />
<glyph unicode="t" horiz-adv-x="444" d="M236 -12Q188 -12 153 -2T98 31T78 96Q78 108 81 131T91 197L125 393H51L75 528H157L228 688H376L348 528H460L436 393H324L291 207Q289 194 288 184T286 164Q286 145 295 134T332 123H388L367 6Q350 1 326 -3T278 -10T236 -12Z" />
<glyph unicode="u" horiz-adv-x="667" d="M201 -13Q146 -13 110 4T57 52T39 129Q39 143 40 156T44 185L104 527H303L247 209Q246 204 246 200T245 190Q245 173 251 161T270 141T301 134Q320 134 336 140T365 158T386 185T398 217L453 527H652L559 -1H397V79H390Q365
48 335 28T271 -3T201 -13Z" />
<glyph unicode="v" horiz-adv-x="611" d="M153 0L47 528H252L274 357Q277 337 280 314T287 262T294 199H301Q316 235 328 261T351 311T373 357L453 528H658L362 0H153Z" />
<glyph unicode="w" horiz-adv-x="944" d="M146 0L47 528H254L266 367Q268 341 270 313T274 259T278 216H285Q294 237 306 265T330 320T351 366L423 528H621L634 365Q635 351 637 325T641 269T646 216H653Q662 236 673 263T696 317T717 365L789 528H991L703 0H509L491
178Q489 196 487 217T483 259T479 294H475Q469 280 460 260T442 219T423 179L340 0H146Z" />
<glyph unicode="x" horiz-adv-x="667" d="M-43 0L216 277L71 528H295L360 390H364L477 528H697L456 275L615 0H394L322 160H318L183 0H-43Z" />
<glyph unicode="y" horiz-adv-x="611" d="M77 -210Q41 -210 10 -205T-40 -192L-19 -73H61Q96 -73 117 -60T149 -30T165 0L46 528H253L278 314Q281 291 283 269T289 223T295 177H302Q310 197 317 215T332 250T347 282T360 313L454 528H657L385 16Q359 -32 329 -73T263
-145T181 -193T77 -210Z" />
<glyph unicode="z" horiz-adv-x="556" d="M-26 0L-13 70L261 393H56L80 528H574L562 460L286 135H513L489 0H-26Z" />
<glyph unicode="{" horiz-adv-x="389" d="M279 -160Q204 -160 157 -152T87 -124T64 -66Q64 -57 68 -28T80 38T94 112T106 174T111 204Q111 229 88 239T32 250L46 329Q76 329 107 342T143 386L185 625Q193 671 220 695T301 728T437 737L420 639Q406 639 388 637T356
626T337 598L291 397Q284 365 269 342T230 306T172 294L170 285Q214 285 234 265T255 206Q255 202 253 179T246 123T238 58T231 2T228 -26Q228 -42 236 -50T259 -60T296 -62L279 -160Z" />
<glyph unicode="|" horiz-adv-x="282" d="M73 -210V726H207V-210H73Z" />
<glyph unicode="}" horiz-adv-x="388" d="M118 736Q194 736 241 728T310 700T333 642Q333 633 329 604T317 538T303 464T291 402T286 372Q286 347 310 337T365 326L351 247Q321 247 290 234T254 190L212 -49Q204 -95 177 -119T96 -152T-40 -161L-23 -63Q-9 -63
9 -61T41 -49T60 -22L106 179Q114 212 129 235T168 270T225 282L227 291Q184 291 163 312T142 370Q142 374 144 397T151 453T160 518T166 574T169 602Q169 619 161 626T138 636T101 638L118 736Z" />
<glyph unicode="~" horiz-adv-x="660" d="M19 187L42 317Q42 317 56 329T96 357T154 385T224 397Q257 397 285 387T340 363T395 340T458 329Q495 329 528 341T586 369T626 397T641 409L618 279Q618 279 604 267T563 239T505 211T436 199Q403 199 375 209T320 233T265
256T202 267Q165 267 132 255T73 227T34 199T19 187Z" />
<glyph unicode="&#xa0;" horiz-adv-x="180" />
<glyph unicode="&#xa1;" horiz-adv-x="333" d="M-5 -160L117 289H234L194 -160H-5ZM97 361L127 528H307L277 361H97Z" />
<glyph unicode="&#xa2;" horiz-adv-x="667" d="M237 -67L382 756H460L314 -67H237ZM319 69Q237 69 178 93T86 167T54 291Q54 311 55 330T60 368Q71 432 100 479T174 558T275 605T396 621Q472 621 531 601T626 541T661 442Q661 432 660 420T657 396H464Q465 402
465 408T466 419Q466 442 457 457T428 479T382 486Q347 486 323 473T285 434T264 373Q258 339 255 321T252 296T251 283Q251 258 260 241T288 214T337 204Q370 204 394 213T433 243T455 296H640Q626 216 580 166T465 92T319 69Z" />
<glyph unicode="&#xa3;" horiz-adv-x="668" d="M14 0L40 147H104L127 276H33L55 403H149L165 493Q175 551 208 597T300 672T449 700Q525 700 576 678T654 616T681 528Q681 516 680 503T673 466H474Q477 479 478 486T479 498T480 505Q480 519 474 529T457 546T432
552Q416 552 402 544T377 523T363 494L347 403H463L441 276H324L285 147H579L553 0H14Z" />
<glyph unicode="&#xa4;" horiz-adv-x="660" d="M144 80L83 141L141 199Q119 224 107 260T95 339Q95 380 106 418T141 479L83 537L146 600L203 543Q226 563 264 575T343 587Q385 587 422 575T479 545L537 603L605 535L549 479Q569 458 580 420T591 339Q591 299
580 261T547 197L603 141L543 81L485 139Q463 117 425 104T343 91Q301 91 263 103T201 137L144 80ZM343 201Q382 201 410 220T455 270T471 339Q471 376 455 407T411 458T343 477Q306 477 277 459T232 409T215 339Q215 301 232 270T278 220T343 201Z" />
<glyph unicode="&#xa5;" horiz-adv-x="678" d="M194 0L220 143H17L33 239H236L244 281H41L58 377H209Q202 394 195 412T180 447L83 688H306L351 528Q354 517 357 506T364 483T371 459H375Q383 471 390 482T405 506T420 529L522 688H746L587 476Q569 452 550 427T511
377H664L647 281H445L437 239H639L623 143H421L395 0H194Z" />
<glyph unicode="&#xa6;" horiz-adv-x="282" d="M73 336V726H207V336H73ZM73 -210V180H207V-210H73Z" />
<glyph unicode="&#xa7;" horiz-adv-x="667" d="M261 -184Q223 -184 182 -178T104 -156T46 -116T23 -53Q23 -45 24 -39T27 -21H208Q207 -23 207 -25T207 -30Q207 -44 215 -52T238 -63T270 -66Q288 -66 307 -62T340 -49T353 -24Q353 -6 337 7T293 33T234 59T170
87T110 123T67 170T50 233Q50 263 60 289T88 337T126 376T169 407Q145 427 130 452T114 510Q114 550 130 581T176 634T242 671T320 693T403 700Q441 700 483 694T561 672T619 632T642 569Q642 562 641 556T638 537H457Q458 539 458 542T458 547Q458 559 449 567T426
578T395 582Q377 582 358 578T326 565T312 540Q312 522 328 509T372 483T431 458T495 430T555 394T598 347T615 284Q615 253 605 227T577 180T538 141T495 109Q520 90 535 65T551 8Q551 -32 534 -63T488 -117T422 -155T344 -177T261 -184ZM398 165Q409 173 418
182T432 201T438 225Q438 246 424 263T384 294T329 322T267 351Q256 344 247 335T233 315T227 291Q227 270 241 253T281 222T336 194T398 165Z" />
<glyph unicode="&#xa8;" horiz-adv-x="372" d="M57 586L81 725H233L209 586H57ZM277 586L301 725H453L429 586H277Z" />
<glyph unicode="&#xa9;" horiz-adv-x="800" d="M415 -12Q337 -12 272 14T159 89T85 202T58 345Q58 422 84 487T159 599T272 673T415 700Q492 700 557 674T671 600T745 487T772 345Q772 267 746 202T671 89T558 15T415 -12ZM419 130Q348 130 300 154T228 226T204
345Q204 415 228 462T300 534T419 558Q479 558 524 538T593 478T618 381H491Q491 405 483 422T458 449T418 459Q373 459 357 431T340 346V345Q340 305 347 280T372 242T417 229Q443 229 460 238T486 264T495 305H618Q618 248 595 209T527 150T419 130ZM414 53Q496
53 559 91T658 195T695 345Q695 430 659 495T559 598T414 636Q333 636 270 599T171 496T135 346Q135 261 171 195T270 91T414 53Z" />
<glyph unicode="&#xaa;" horiz-adv-x="400" d="M165 330Q106 330 73 363T40 460Q40 476 41 492T46 523Q56 575 77 614T134 676T217 699Q246 699 269 688T309 647H313L344 691H445L428 602Q423 577 419 554T410 510T403 473T399 447T397 435Q397 426 401 422T412
417H430L417 343Q402 338 386 334T352 330Q332 330 316 335T288 354Q284 359 280 365T273 382H269Q247 357 219 344T165 330ZM212 423Q232 423 246 432T270 456T283 489Q287 509 288 524T289 552Q289 568 285 580T271 599T245 606Q214 606 199 585T177 531Q171
503 169 492T167 473Q167 450 177 437T212 423Z" />
<glyph unicode="&#xab;" horiz-adv-x="595" d="M166 119L35 324L238 528H381L207 324L309 119H166ZM402 119L271 324L474 528H617L443 324L545 119H402Z" />
<glyph unicode="&#xac;" horiz-adv-x="660" d="M420 154L452 335H52L80 490H634L574 154H420Z" />
<glyph unicode="&#xad;" horiz-adv-x="333" d="M28 196L56 354H309L281 196H28Z" />
<glyph unicode="&#xae;" horiz-adv-x="800" d="M415 -12Q337 -12 272 14T159 89T85 202T58 345Q58 422 84 487T159 599T272 673T415 700Q492 700 557 674T671 600T745 487T772 345Q772 267 746 202T671 89T558 15T415 -12ZM414 53Q496 53 559 91T658 195T695 345Q695
430 659 495T559 598T414 636Q333 636 270 599T171 496T135 346Q135 261 171 195T270 91T414 53ZM246 138V551H457Q522 551 557 517T592 426Q592 387 574 357T531 306L612 138H467L411 284H379V138H246ZM379 376H419Q435 376 446 387T457 417Q457 434 446 445T419
457H379V376Z" />
<glyph unicode="&#xaf;" horiz-adv-x="316" d="M59 600L77 700H393L375 600H59Z" />
<glyph unicode="&#xb0;" horiz-adv-x="400" d="M251 400Q210 400 176 420T121 474T101 550Q101 591 121 625T175 679T251 700Q292 700 326 680T380 625T401 550Q401 509 381 475T326 420T251 400ZM250 487Q276 487 294 505T312 549Q312 575 294 593T249 611Q225
611 207 593T188 549Q188 524 206 506T250 487Z" />
<glyph unicode="&#xb1;" horiz-adv-x="660" d="M236 176L268 358H70L93 490H291L323 672H455L423 490H621L598 358H400L368 176H236ZM7 0L30 132H558L535 0H7Z" />
<glyph unicode="&#xb2;" horiz-adv-x="420" d="M79 440L84 465Q90 493 110 517T158 561T216 600T272 634T314 667T331 700Q331 712 322 721T289 731Q272 731 259 725T237 707T226 681L224 670H125Q125 674 125 677T127 683Q134 724 157 751T218 791T303 805Q345
805 376 793T425 759T443 708Q443 684 435 665T412 630T379 601T340 576T300 553T263 529H414L397 440H79Z" />
<glyph unicode="&#xb3;" horiz-adv-x="420" d="M245 428Q169 428 132 454T95 517Q95 523 96 530T99 544H198Q197 540 196 537T195 530Q195 517 207 509T247 501Q269 501 284 508T307 528T315 558Q315 568 311 574T299 584T282 588H242L254 653H286Q300 653 310
659T326 675T332 699Q332 713 322 723T289 733Q274 733 262 728T243 716T233 698L232 693H134L136 706Q141 733 162 755T220 791T306 805Q371 805 408 781T445 718Q445 696 435 677T409 645T373 626L372 623Q397 614 410 596T424 551Q424 511 400 484T336 442T245
428Z" />
<glyph unicode="&#xb4;" horiz-adv-x="295" d="M58 592L170 725H375L376 721L197 592H58Z" />
<glyph unicode="&#xb5;" horiz-adv-x="669" d="M-21 -197L107 528H306L255 230Q253 219 251 208T249 190Q249 174 254 162T271 142T301 135Q320 135 336 141T366 160T388 189T401 228L455 528H654L561 0H402V80H394Q379 53 358 34T313 6T261 -4Q247 -4 234 -2T206
5Q205 -16 202 -48T193 -108L178 -197H-21Z" />
<glyph unicode="&#xb6;" horiz-adv-x="708" d="M177 -161L251 255Q193 257 152 286T91 364T82 471Q90 516 113 555T172 624T249 671T336 688H755L734 567H668L539 -161H411L540 567H434L305 -161H177Z" />
<glyph unicode="&#xb7;" horiz-adv-x="333" d="M66 235L98 418H289L257 235H66Z" />
<glyph unicode="&#xb8;" horiz-adv-x="255" d="M49 -211Q15 -211 -23 -207T-81 -195L-71 -138H34Q52 -138 65 -135T78 -109Q78 -98 71 -95T44 -92H4L47 39H143L120 -29Q143 -33 166 -48T189 -99Q189 -133 174 -155T137 -189T91 -206T49 -211Z" />
<glyph unicode="&#xb9;" horiz-adv-x="420" d="M79 440L93 522H204L232 680H131L142 742Q170 744 203 752T268 773T326 799H364L315 522H422L408 440H79Z" />
<glyph unicode="&#xba;" horiz-adv-x="400" d="M226 329Q141 329 94 364T47 470Q47 487 49 501T53 528Q63 585 93 622T167 679T263 698Q347 698 393 663T440 556Q440 543 439 529T435 497Q425 442 395 405T320 348T226 329ZM226 415Q258 415 277 435T304 499Q308
520 309 530T311 546T312 558Q312 584 300 598T261 612Q227 612 209 589T183 528Q180 509 178 498T175 480T174 469Q174 443 186 429T226 415Z" />
<glyph unicode="&#xbb;" horiz-adv-x="595" d="M450 528L581 323L378 119H235L409 323L307 528H450ZM214 528L345 323L142 119H-1L173 323L71 528H214Z" />
<glyph unicode="&#xbc;" horiz-adv-x="1000" d="M190 -12L726 700H822L285 -12H190ZM61 340L75 422H186L214 580H113L124 642Q152 644 185 652T250 673T308 699H346L297 422H404L390 340H61ZM722 0L735 74H548L562 153Q597 191 637 247T707 365H817Q810 344 791
316T745 257T691 199T640 152H749L762 223Q774 236 789 255T819 295T840 330H887L855 152H909L895 74H841L828 0H722Z" />
<glyph unicode="&#xbd;" horiz-adv-x="1000" d="M190 -12L726 700H822L285 -12H190ZM61 340L75 422H186L214 580H113L124 642Q152 644 185 652T250 673T308 699H346L297 422H404L390 340H61ZM550 0L555 25Q561 53 581 77T629 121T687 160T743 194T785 227T802
260Q802 272 793 281T760 291Q743 291 730 285T708 267T697 241L695 230H596Q596 234 596 237T598 243Q605 284 628 311T689 351T774 365Q816 365 847 353T896 319T914 268Q914 244 906 225T883 190T850 161T811 136T771 113T734 89H885L868 0H550Z" />
<glyph unicode="&#xbe;" horiz-adv-x="1000" d="M190 -12L726 700H822L285 -12H190ZM227 328Q151 328 114 354T77 417Q77 423 78 430T81 444H180Q179 440 178 437T177 430Q177 417 189 409T229 401Q251 401 266 408T289 428T297 458Q297 468 293 474T281 484T264
488H224L236 553H268Q282 553 292 559T308 575T314 599Q314 613 304 623T271 633Q256 633 244 628T225 616T215 598L214 593H116L118 606Q123 633 144 655T202 691T288 705Q353 705 390 681T427 618Q427 596 417 577T391 545T355 526L354 523Q379 514 392 496T406
451Q406 411 382 384T318 342T227 328ZM694 0L707 74H520L534 153Q569 191 609 247T679 365H789Q782 344 763 316T717 257T663 199T612 152H721L734 223Q746 236 761 255T791 295T812 330H859L827 152H881L867 74H813L800 0H694Z" />
<glyph unicode="&#xbf;" horiz-adv-x="611" d="M234 -172Q182 -172 139 -159T65 -122T16 -65T-1 8Q-1 47 14 78T53 133T104 176T155 210T196 237T214 261L217 282H388L380 232Q377 213 364 196T332 164T293 132T254 99T225 63T214 21Q214 6 220 -6T239 -26T269
-34Q287 -34 301 -27T326 -7T343 22T351 57Q352 62 352 67T353 77H536Q536 29 521 -10T477 -79T412 -130T329 -161T234 -172ZM210 343L243 528H441L408 343H210Z" />
<glyph unicode="&#xc0;" horiz-adv-x="778" d="M-37 0L337 688H594L722 0H495L483 97H241L195 0H-37ZM314 251H464L451 361Q449 378 447 395T443 428T438 462T434 496H430Q420 474 409 452T388 407T366 361L314 251ZM413 752L276 881L278 885H476L545 752H413Z" />
<glyph unicode="&#xc1;" horiz-adv-x="778" d="M-37 0L337 688H594L722 0H495L483 97H241L195 0H-37ZM314 251H464L451 361Q449 378 447 395T443 428T438 462T434 496H430Q420 474 409 452T388 407T366 361L314 251ZM386 752L502 885H710L711 881L528 752H386Z" />
<glyph unicode="&#xc2;" horiz-adv-x="778" d="M-37 0L337 688H594L722 0H495L483 97H241L195 0H-37ZM314 251H464L451 361Q449 378 447 395T443 428T438 462T434 496H430Q420 474 409 452T388 407T366 361L314 251ZM249 752L407 885H575L685 752H541L456 841H514L397
752H249Z" />
<glyph unicode="&#xc3;" horiz-adv-x="778" d="M-37 0L337 688H594L722 0H495L483 97H241L195 0H-37ZM314 251H464L451 361Q449 378 447 395T443 428T438 462T434 496H430Q420 474 409 452T388 407T366 361L314 251ZM248 742Q255 778 275 811T329 864T404 885Q441
885 470 875T526 855T580 845Q599 845 614 856T637 885H718Q712 849 691 817T637 763T562 742Q525 742 496 752T440 772T386 782Q367 782 352 771T329 742H248Z" />
<glyph unicode="&#xc4;" horiz-adv-x="778" d="M-37 0L337 688H594L722 0H495L483 97H241L195 0H-37ZM314 251H464L451 361Q449 378 447 395T443 428T438 462T434 496H430Q420 474 409 452T388 407T366 361L314 251ZM285 746L309 885H461L437 746H285ZM506 746L530
885H682L658 746H506Z" />
<glyph unicode="&#xc5;" horiz-adv-x="778" d="M-37 0L337 688H594L722 0H495L483 97H241L195 0H-37ZM314 251H464L451 361Q449 378 447 395T443 428T438 462T434 496H430Q420 474 409 452T388 407T366 361L314 251ZM473 727Q428 727 399 753T369 821Q369 857
386 884T433 928T501 944Q546 944 575 917T605 849Q605 814 588 786T542 743T473 727ZM482 800Q496 800 506 804T522 818T528 839Q528 852 518 861T492 870Q479 870 469 865T452 851T446 830Q446 818 456 809T482 800Z" />
<glyph unicode="&#xc6;" horiz-adv-x="1020" d="M-50 0L363 688H1042L1013 523H648L653 428H940L912 270H662L667 165H956L927 0H473L468 97H234L183 0H-50ZM317 251H462L455 402Q455 414 455 425T453 449T452 472T451 496H447Q439 481 431 466T414 435T397 402L317 251Z" />
<glyph unicode="&#xc7;" horiz-adv-x="778" d="M363 -12Q208 -12 129 56T50 257Q50 280 52 304T59 354Q79 468 130 545T264 661T458 700Q552 700 620 674T726 596T763 469Q763 454 762 438T757 405H546Q548 414 548 422T549 438Q549 468 538 489T504 523T448 535Q413
535 386 524T340 491T309 441T290 376Q285 345 282 326T277 295T275 276T274 263Q274 230 285 205T319 167T379 153Q423 153 454 168T504 211T531 279H735Q719 185 673 120T549 22T363 -12ZM310 -211Q276 -211 238 -207T180 -195L190 -138H295Q313 -138 326 -135T339
-109Q339 -98 332 -95T305 -92H265L308 39H404L381 -29Q404 -33 427 -48T450 -99Q450 -133 435 -155T398 -189T352 -206T310 -211Z" />
<glyph unicode="&#xc8;" horiz-adv-x="722" d="M27 0L149 688H744L715 523H341L324 428H644L616 270H296L277 165H658L629 0H27ZM402 752L265 881L267 885H465L534 752H402Z" />
<glyph unicode="&#xc9;" horiz-adv-x="722" d="M27 0L149 688H744L715 523H341L324 428H644L616 270H296L277 165H658L629 0H27ZM375 752L491 885H699L700 881L517 752H375Z" />
<glyph unicode="&#xca;" horiz-adv-x="722" d="M27 0L149 688H744L715 523H341L324 428H644L616 270H296L277 165H658L629 0H27ZM238 752L396 885H564L674 752H530L445 841H503L386 752H238Z" />
<glyph unicode="&#xcb;" horiz-adv-x="722" d="M27 0L149 688H744L715 523H341L324 428H644L616 270H296L277 165H658L629 0H27ZM274 746L298 885H450L426 746H274ZM495 746L519 885H671L647 746H495Z" />
<glyph unicode="&#xcc;" horiz-adv-x="369" d="M27 0L149 688H370L248 0H27ZM210 752L73 881L75 885H273L342 752H210Z" />
<glyph unicode="&#xcd;" horiz-adv-x="369" d="M27 0L149 688H370L248 0H27ZM183 752L299 885H507L508 881L325 752H183Z" />
<glyph unicode="&#xce;" horiz-adv-x="369" d="M27 0L149 688H370L248 0H27ZM46 752L204 885H372L482 752H338L253 841H311L194 752H46Z" />
<glyph unicode="&#xcf;" horiz-adv-x="369" d="M27 0L149 688H370L248 0H27ZM82 746L106 885H258L234 746H82ZM303 746L327 885H479L455 746H303Z" />
<glyph unicode="&#xd0;" horiz-adv-x="778" d="M3 279L27 417H427L403 279H3ZM28 0L149 688H437Q592 688 674 624T756 425Q756 404 755 382T748 334Q728 220 676 146T541 36T346 0H28ZM278 165H351Q388 165 416 175T464 204T497 251T516 314Q523 352 526 371T530
400T531 416Q531 450 519 474T481 510T414 523H341L278 165Z" />
<glyph unicode="&#xd1;" horiz-adv-x="833" d="M27 0L149 688H335L504 425Q515 409 526 391T548 355T567 323L572 325Q574 345 576 360T582 394L632 688H834L712 0H527L336 289Q327 303 315 323T294 359L289 358Q287 336 284 316T278 286L229 0H27ZM279 742Q286
778 306 811T360 864T435 885Q472 885 501 875T557 855T611 845Q630 845 645 856T668 885H749Q743 849 722 817T668 763T593 742Q556 742 527 752T471 772T417 782Q398 782 383 771T360 742H279Z" />
<glyph unicode="&#xd2;" horiz-adv-x="833" d="M377 -12Q273 -12 200 19T88 111T50 264Q50 285 52 307T59 354Q79 468 131 545T270 661T482 700Q587 700 660 669T772 576T810 421Q810 401 808 379T802 334Q782 220 729 143T588 27T377 -12ZM396 153Q432 153 461
164T513 197T549 247T570 312Q575 341 578 359T582 389T584 406T585 417Q585 453 572 479T531 520T463 535Q427 535 398 524T347 491T311 441T290 376Q285 346 282 328T278 298T276 281T275 270Q275 235 288 209T328 168T396 153ZM443 752L306 881L308 885H506L575
752H443Z" />
<glyph unicode="&#xd3;" horiz-adv-x="833" d="M377 -12Q273 -12 200 19T88 111T50 264Q50 285 52 307T59 354Q79 468 131 545T270 661T482 700Q587 700 660 669T772 576T810 421Q810 401 808 379T802 334Q782 220 729 143T588 27T377 -12ZM396 153Q432 153 461
164T513 197T549 247T570 312Q575 341 578 359T582 389T584 406T585 417Q585 453 572 479T531 520T463 535Q427 535 398 524T347 491T311 441T290 376Q285 346 282 328T278 298T276 281T275 270Q275 235 288 209T328 168T396 153ZM416 752L532 885H740L741 881L558
752H416Z" />
<glyph unicode="&#xd4;" horiz-adv-x="833" d="M377 -12Q273 -12 200 19T88 111T50 264Q50 285 52 307T59 354Q79 468 131 545T270 661T482 700Q587 700 660 669T772 576T810 421Q810 401 808 379T802 334Q782 220 729 143T588 27T377 -12ZM396 153Q432 153 461
164T513 197T549 247T570 312Q575 341 578 359T582 389T584 406T585 417Q585 453 572 479T531 520T463 535Q427 535 398 524T347 491T311 441T290 376Q285 346 282 328T278 298T276 281T275 270Q275 235 288 209T328 168T396 153ZM279 752L437 885H605L715 752H571L486
841H544L427 752H279Z" />
<glyph unicode="&#xd5;" horiz-adv-x="833" d="M377 -12Q273 -12 200 19T88 111T50 264Q50 285 52 307T59 354Q79 468 131 545T270 661T482 700Q587 700 660 669T772 576T810 421Q810 401 808 379T802 334Q782 220 729 143T588 27T377 -12ZM396 153Q432 153 461
164T513 197T549 247T570 312Q575 341 578 359T582 389T584 406T585 417Q585 453 572 479T531 520T463 535Q427 535 398 524T347 491T311 441T290 376Q285 346 282 328T278 298T276 281T275 270Q275 235 288 209T328 168T396 153ZM278 742Q285 778 305 811T359
864T434 885Q471 885 500 875T556 855T610 845Q629 845 644 856T667 885H748Q742 849 721 817T667 763T592 742Q555 742 526 752T470 772T416 782Q397 782 382 771T359 742H278Z" />
<glyph unicode="&#xd6;" horiz-adv-x="833" d="M377 -12Q273 -12 200 19T88 111T50 264Q50 285 52 307T59 354Q79 468 131 545T270 661T482 700Q587 700 660 669T772 576T810 421Q810 401 808 379T802 334Q782 220 729 143T588 27T377 -12ZM396 153Q432 153 461
164T513 197T549 247T570 312Q575 341 578 359T582 389T584 406T585 417Q585 453 572 479T531 520T463 535Q427 535 398 524T347 491T311 441T290 376Q285 346 282 328T278 298T276 281T275 270Q275 235 288 209T328 168T396 153ZM315 746L339 885H491L467 746H315ZM536
746L560 885H712L688 746H536Z" />
<glyph unicode="&#xd7;" horiz-adv-x="660" d="M123 2L38 96L240 264L98 432L200 526L338 357L536 526L622 432L420 264L562 96L459 2L321 171L123 2Z" />
<glyph unicode="&#xd8;" horiz-adv-x="833" d="M377 -12Q273 -12 200 19T88 111T50 264Q50 285 52 307T59 354Q79 468 131 545T270 661T482 700Q587 700 660 669T772 576T810 421Q810 401 808 379T802 334Q782 220 729 143T588 27T377 -12ZM396 153Q432 153 461
164T513 197T549 247T570 312Q575 341 578 359T582 389T584 406T585 417Q585 453 572 479T531 520T463 535Q427 535 398 524T347 491T311 441T290 376Q285 346 282 328T278 298T276 281T275 270Q275 235 288 209T328 168T396 153ZM0 -37L744 724H859L114 -37H0Z"
/>
<glyph unicode="&#xd9;" horiz-adv-x="833" d="M378 -12Q235 -12 153 45T71 218Q71 233 72 249T77 282L149 688H370L298 280Q297 272 296 264T295 248Q295 205 319 179T396 153Q457 153 494 189T541 280L613 688H834L760 267Q744 174 694 112T565 19T378 -12ZM444
752L307 881L309 885H507L576 752H444Z" />
<glyph unicode="&#xda;" horiz-adv-x="833" d="M378 -12Q235 -12 153 45T71 218Q71 233 72 249T77 282L149 688H370L298 280Q297 272 296 264T295 248Q295 205 319 179T396 153Q457 153 494 189T541 280L613 688H834L760 267Q744 174 694 112T565 19T378 -12ZM417
752L533 885H741L742 881L559 752H417Z" />
<glyph unicode="&#xdb;" horiz-adv-x="833" d="M378 -12Q235 -12 153 45T71 218Q71 233 72 249T77 282L149 688H370L298 280Q297 272 296 264T295 248Q295 205 319 179T396 153Q457 153 494 189T541 280L613 688H834L760 267Q744 174 694 112T565 19T378 -12ZM280
752L438 885H606L716 752H572L487 841H545L428 752H280Z" />
<glyph unicode="&#xdc;" horiz-adv-x="833" d="M378 -12Q235 -12 153 45T71 218Q71 233 72 249T77 282L149 688H370L298 280Q297 272 296 264T295 248Q295 205 319 179T396 153Q457 153 494 189T541 280L613 688H834L760 267Q744 174 694 112T565 19T378 -12ZM316
746L340 885H492L468 746H316ZM537 746L561 885H713L689 746H537Z" />
<glyph unicode="&#xdd;" horiz-adv-x="778" d="M234 0L281 267L83 688H325L421 457H425L596 688H846L502 267L455 0H234ZM389 752L505 885H713L714 881L531 752H389Z" />
<glyph unicode="&#xde;" horiz-adv-x="722" d="M27 0L149 688H370L352 588H510Q568 588 610 564T676 497T700 398Q700 341 681 291T628 203T547 144T443 122H270L248 0H27ZM298 283H392Q421 283 439 294T465 325T474 370Q474 396 458 410T411 425H323L298 283Z" />
<glyph unicode="&#xdf;" horiz-adv-x="667" d="M13 0L107 526Q117 580 141 620T204 686T292 724T402 737Q444 737 486 728T564 700T621 649T643 573Q643 532 628 497T586 437T520 400L519 395Q562 379 586 334T611 239Q611 182 590 138T532 63T443 16T332 0H260L284
136H312Q338 136 361 150T398 188T413 241Q413 263 404 282T378 313T341 325H317L342 466H369Q391 466 408 476T436 504T447 545Q447 569 431 586T385 603Q364 603 347 594T320 570T306 534L212 0H13Z" />
<glyph unicode="&#xe0;" horiz-adv-x="667" d="M225 -12Q163 -12 119 11T51 78T28 188Q28 207 29 228T35 273Q51 363 85 422T171 510T288 540Q323 540 351 532T401 507T441 461H448L494 528H651L627 400Q621 368 615 334T603 267T592 208T585 164T582 141Q582
127 589 121T607 114H636L617 8Q594 -1 568 -6T516 -12Q484 -12 459 -5T416 18Q407 26 402 38T392 64H385Q353 28 311 8T225 -12ZM297 135Q320 135 338 144T370 168T392 204T405 248Q409 270 411 282T413 302T414 314Q414 337 407 355T384 383T343 393Q312 393
291 381T258 345T239 291Q233 259 230 243T227 219T226 206Q226 173 242 154T297 135ZM311 592L182 721L185 725H380L445 592H311Z" />
<glyph unicode="&#xe1;" horiz-adv-x="667" d="M225 -12Q163 -12 119 11T51 78T28 188Q28 207 29 228T35 273Q51 363 85 422T171 510T288 540Q323 540 351 532T401 507T441 461H448L494 528H651L627 400Q621 368 615 334T603 267T592 208T585 164T582 141Q582
127 589 121T607 114H636L617 8Q594 -1 568 -6T516 -12Q484 -12 459 -5T416 18Q407 26 402 38T392 64H385Q353 28 311 8T225 -12ZM297 135Q320 135 338 144T370 168T392 204T405 248Q409 270 411 282T413 302T414 314Q414 337 407 355T384 383T343 393Q312 393
291 381T258 345T239 291Q233 259 230 243T227 219T226 206Q226 173 242 154T297 135ZM286 592L398 725H603L604 721L425 592H286Z" />
<glyph unicode="&#xe2;" horiz-adv-x="667" d="M225 -12Q163 -12 119 11T51 78T28 188Q28 207 29 228T35 273Q51 363 85 422T171 510T288 540Q323 540 351 532T401 507T441 461H448L494 528H651L627 400Q621 368 615 334T603 267T592 208T585 164T582 141Q582
127 589 121T607 114H636L617 8Q594 -1 568 -6T516 -12Q484 -12 459 -5T416 18Q407 26 402 38T392 64H385Q353 28 311 8T225 -12ZM297 135Q320 135 338 144T370 168T392 204T405 248Q409 270 411 282T413 302T414 314Q414 337 407 355T384 383T343 393Q312 393
291 381T258 345T239 291Q233 259 230 243T227 219T226 206Q226 173 242 154T297 135ZM158 592L316 725H484L594 592H450L365 681H423L306 592H158Z" />
<glyph unicode="&#xe3;" horiz-adv-x="667" d="M225 -12Q163 -12 119 11T51 78T28 188Q28 207 29 228T35 273Q51 363 85 422T171 510T288 540Q323 540 351 532T401 507T441 461H448L494 528H651L627 400Q621 368 615 334T603 267T592 208T585 164T582 141Q582
127 589 121T607 114H636L617 8Q594 -1 568 -6T516 -12Q484 -12 459 -5T416 18Q407 26 402 38T392 64H385Q353 28 311 8T225 -12ZM297 135Q320 135 338 144T370 168T392 204T405 248Q409 270 411 282T413 302T414 314Q414 337 407 355T384 383T343 393Q312 393
291 381T258 345T239 291Q233 259 230 243T227 219T226 206Q226 173 242 154T297 135ZM144 582Q151 618 171 651T225 704T300 725Q337 725 366 715T422 695T476 685Q495 685 510 696T533 725H614Q608 689 587 657T533 603T458 582Q421 582 392 592T336 612T282
622Q263 622 248 611T225 582H144Z" />
<glyph unicode="&#xe4;" horiz-adv-x="667" d="M225 -12Q163 -12 119 11T51 78T28 188Q28 207 29 228T35 273Q51 363 85 422T171 510T288 540Q323 540 351 532T401 507T441 461H448L494 528H651L627 400Q621 368 615 334T603 267T592 208T585 164T582 141Q582
127 589 121T607 114H636L617 8Q594 -1 568 -6T516 -12Q484 -12 459 -5T416 18Q407 26 402 38T392 64H385Q353 28 311 8T225 -12ZM297 135Q320 135 338 144T370 168T392 204T405 248Q409 270 411 282T413 302T414 314Q414 337 407 355T384 383T343 393Q312 393
291 381T258 345T239 291Q233 259 230 243T227 219T226 206Q226 173 242 154T297 135ZM191 586L215 725H367L343 586H191ZM411 586L435 725H587L563 586H411Z" />
<glyph unicode="&#xe5;" horiz-adv-x="667" d="M225 -12Q163 -12 119 11T51 78T28 188Q28 207 29 228T35 273Q51 363 85 422T171 510T288 540Q323 540 351 532T401 507T441 461H448L494 528H651L627 400Q621 368 615 334T603 267T592 208T585 164T582 141Q582
127 589 121T607 114H636L617 8Q594 -1 568 -6T516 -12Q484 -12 459 -5T416 18Q407 26 402 38T392 64H385Q353 28 311 8T225 -12ZM297 135Q320 135 338 144T370 168T392 204T405 248Q409 270 411 282T413 302T414 314Q414 337 407 355T384 383T343 393Q312 393
291 381T258 345T239 291Q233 259 230 243T227 219T226 206Q226 173 242 154T297 135ZM379 577Q339 577 312 603T284 669Q284 723 319 758T409 794Q450 794 477 768T504 702Q504 666 488 638T444 594T379 577ZM388 643Q401 643 411 649T428 666T434 690Q434 707
424 717T400 727Q388 727 378 721T361 704T354 679Q354 663 364 653T388 643Z" />
<glyph unicode="&#xe6;" horiz-adv-x="1008" d="M212 -12Q166 -12 128 -5T61 19T18 60T3 120Q3 174 21 210T74 269T158 304T269 320T403 324L407 350Q408 354 408 357T408 364Q408 389 390 401T345 413Q327 413 308 411T275 400T258 374L256 363H60Q60 367 60
370T61 376Q68 436 111 472T219 524T357 540Q413 540 465 529T550 492Q589 516 633 528T729 540Q808 540 863 516T946 444T975 329Q975 310 972 285T963 230H587Q586 220 585 211T583 192Q583 168 591 151T617 124T663 115Q687 115 704 121T734 137T753 162T763
192H956Q948 145 928 107T872 43T785 2T664 -12Q589 -12 531 6T437 61Q409 43 375 26T300 -1T212 -12ZM265 112Q284 112 303 118T339 136T366 163T380 194L386 230Q322 230 283 220T225 193T207 153Q207 137 215 128T236 116T265 112ZM605 324H779Q780 330 780
335T781 345Q781 367 773 382T750 405T711 413Q682 413 661 402T627 372T605 324Z" />
<glyph unicode="&#xe7;" horiz-adv-x="667" d="M296 -12Q214 -12 155 12T63 86T31 210Q31 230 32 249T37 287Q48 351 77 398T151 477T252 524T373 540Q449 540 508 520T603 460T638 361Q638 351 637 339T634 315H441Q442 321 442 327T443 338Q443 361 434 376T405
398T359 405Q324 405 300 392T262 353T241 292Q235 258 232 240T229 215T228 202Q228 177 237 160T265 133T314 123Q347 123 371 132T410 162T432 215H617Q603 135 557 85T442 11T296 -12ZM262 -211Q228 -211 190 -207T132 -195L142 -138H247Q265 -138 278 -135T291
-109Q291 -98 284 -95T257 -92H217L260 39H356L333 -29Q356 -33 379 -48T402 -99Q402 -133 387 -155T350 -189T304 -206T262 -211Z" />
<glyph unicode="&#xe8;" horiz-adv-x="667" d="M308 -12Q222 -12 160 11T65 83T31 207Q31 229 32 249T38 289Q53 373 98 428T211 512T363 540Q450 540 510 518T602 451T634 334Q634 318 632 296T622 230H226Q225 223 224 213T222 194Q222 169 231 151T260 124T311
115Q338 115 357 121T390 137T411 162T422 192H615Q607 145 584 107T522 43T430 2T308 -12ZM243 324H437Q438 329 438 335T439 345Q439 367 431 382T405 405T364 413Q331 413 307 402T268 372T243 324ZM303 592L174 721L177 725H372L437 592H303Z" />
<glyph unicode="&#xe9;" horiz-adv-x="667" d="M308 -12Q222 -12 160 11T65 83T31 207Q31 229 32 249T38 289Q53 373 98 428T211 512T363 540Q450 540 510 518T602 451T634 334Q634 318 632 296T622 230H226Q225 223 224 213T222 194Q222 169 231 151T260 124T311
115Q338 115 357 121T390 137T411 162T422 192H615Q607 145 584 107T522 43T430 2T308 -12ZM243 324H437Q438 329 438 335T439 345Q439 367 431 382T405 405T364 413Q331 413 307 402T268 372T243 324ZM278 592L390 725H595L596 721L417 592H278Z" />
<glyph unicode="&#xea;" horiz-adv-x="667" d="M308 -12Q222 -12 160 11T65 83T31 207Q31 229 32 249T38 289Q53 373 98 428T211 512T363 540Q450 540 510 518T602 451T634 334Q634 318 632 296T622 230H226Q225 223 224 213T222 194Q222 169 231 151T260 124T311
115Q338 115 357 121T390 137T411 162T422 192H615Q607 145 584 107T522 43T430 2T308 -12ZM243 324H437Q438 329 438 335T439 345Q439 367 431 382T405 405T364 413Q331 413 307 402T268 372T243 324ZM150 592L308 725H476L586 592H442L357 681H415L298 592H150Z"
/>
<glyph unicode="&#xeb;" horiz-adv-x="667" d="M308 -12Q222 -12 160 11T65 83T31 207Q31 229 32 249T38 289Q53 373 98 428T211 512T363 540Q450 540 510 518T602 451T634 334Q634 318 632 296T622 230H226Q225 223 224 213T222 194Q222 169 231 151T260 124T311
115Q338 115 357 121T390 137T411 162T422 192H615Q607 145 584 107T522 43T430 2T308 -12ZM243 324H437Q438 329 438 335T439 345Q439 367 431 382T405 405T364 413Q331 413 307 402T268 372T243 324ZM183 586L207 725H359L335 586H183ZM403 586L427 725H579L555
586H403Z" />
<glyph unicode="&#xec;" horiz-adv-x="319" d="M14 0L107 528H306L213 0H14ZM151 592L22 721L25 725H220L285 592H151Z" />
<glyph unicode="&#xed;" horiz-adv-x="319" d="M14 0L107 528H306L213 0H14ZM126 592L238 725H443L444 721L265 592H126Z" />
<glyph unicode="&#xee;" horiz-adv-x="319" d="M14 0L107 528H306L213 0H14ZM-2 592L156 725H324L434 592H290L205 681H263L146 592H-2Z" />
<glyph unicode="&#xef;" horiz-adv-x="319" d="M14 0L107 528H306L213 0H14ZM31 586L55 725H207L183 586H31ZM251 586L275 725H427L403 586H251Z" />
<glyph unicode="&#xf0;" horiz-adv-x="667" d="M293 -12Q214 -12 155 13T62 87T29 206Q29 289 59 356T145 466Q162 480 181 490T223 508T268 519T317 523Q338 523 360 520T405 511L412 518Q404 537 394 553T371 586L203 567L217 645L317 656Q295 679 278 694T247
718L250 725H435Q452 715 467 703T495 678L647 694L633 616L553 608Q586 563 614 501T642 356Q642 296 632 245T599 152Q572 100 529 64T426 8T293 -12ZM304 123Q346 123 371 139T413 192T440 292Q441 297 441 301T442 309T443 317T443 325Q443 350 435 367T409
395T364 405Q323 405 297 389T256 335T229 235Q228 229 228 223T227 212T226 201Q226 177 234 160T259 133T304 123Z" />
<glyph unicode="&#xf1;" horiz-adv-x="667" d="M14 0L107 528H269V448H276Q301 479 331 499T396 530T465 540Q521 540 556 523T609 475T627 398Q627 385 626 371T622 342L562 0H363L419 318Q420 323 420 328T421 337Q421 354 415 366T396 386T365 393Q346 393
330 387T301 369T280 342T268 310L213 0H14ZM165 582Q172 618 192 651T246 704T321 725Q358 725 387 715T443 695T497 685Q516 685 531 696T554 725H635Q629 689 608 657T554 603T479 582Q442 582 413 592T357 612T303 622Q284 622 269 611T246 582H165Z" />
<glyph unicode="&#xf2;" horiz-adv-x="667" d="M294 -12Q213 -12 154 12T62 85T30 208Q30 229 31 249T37 287Q52 372 97 428T212 512T371 540Q453 540 512 516T604 442T637 318Q637 248 619 194T568 98Q538 61 496 37T404 0T294 -12ZM308 123Q343 123 367 136T405
175T426 235Q432 270 435 287T438 313T439 327Q439 352 431 369T404 395T357 405Q322 405 298 392T260 353T239 292Q233 258 230 240T227 214T226 201Q226 177 234 160T261 133T308 123ZM325 592L196 721L199 725H394L459 592H325Z" />
<glyph unicode="&#xf3;" horiz-adv-x="667" d="M294 -12Q213 -12 154 12T62 85T30 208Q30 229 31 249T37 287Q52 372 97 428T212 512T371 540Q453 540 512 516T604 442T637 318Q637 248 619 194T568 98Q538 61 496 37T404 0T294 -12ZM308 123Q343 123 367 136T405
175T426 235Q432 270 435 287T438 313T439 327Q439 352 431 369T404 395T357 405Q322 405 298 392T260 353T239 292Q233 258 230 240T227 214T226 201Q226 177 234 160T261 133T308 123ZM300 592L412 725H617L618 721L439 592H300Z" />
<glyph unicode="&#xf4;" horiz-adv-x="667" d="M294 -12Q213 -12 154 12T62 85T30 208Q30 229 31 249T37 287Q52 372 97 428T212 512T371 540Q453 540 512 516T604 442T637 318Q637 248 619 194T568 98Q538 61 496 37T404 0T294 -12ZM308 123Q343 123 367 136T405
175T426 235Q432 270 435 287T438 313T439 327Q439 352 431 369T404 395T357 405Q322 405 298 392T260 353T239 292Q233 258 230 240T227 214T226 201Q226 177 234 160T261 133T308 123ZM172 592L330 725H498L608 592H464L379 681H437L320 592H172Z" />
<glyph unicode="&#xf5;" horiz-adv-x="667" d="M294 -12Q213 -12 154 12T62 85T30 208Q30 229 31 249T37 287Q52 372 97 428T212 512T371 540Q453 540 512 516T604 442T637 318Q637 248 619 194T568 98Q538 61 496 37T404 0T294 -12ZM308 123Q343 123 367 136T405
175T426 235Q432 270 435 287T438 313T439 327Q439 352 431 369T404 395T357 405Q322 405 298 392T260 353T239 292Q233 258 230 240T227 214T226 201Q226 177 234 160T261 133T308 123ZM158 582Q165 618 185 651T239 704T314 725Q351 725 380 715T436 695T490
685Q509 685 524 696T547 725H628Q622 689 601 657T547 603T472 582Q435 582 406 592T350 612T296 622Q277 622 262 611T239 582H158Z" />
<glyph unicode="&#xf6;" horiz-adv-x="667" d="M294 -12Q213 -12 154 12T62 85T30 208Q30 229 31 249T37 287Q52 372 97 428T212 512T371 540Q453 540 512 516T604 442T637 318Q637 248 619 194T568 98Q538 61 496 37T404 0T294 -12ZM308 123Q343 123 367 136T405
175T426 235Q432 270 435 287T438 313T439 327Q439 352 431 369T404 395T357 405Q322 405 298 392T260 353T239 292Q233 258 230 240T227 214T226 201Q226 177 234 160T261 133T308 123ZM205 586L229 725H381L357 586H205ZM425 586L449 725H601L577 586H425Z" />
<glyph unicode="&#xf7;" horiz-adv-x="660" d="M54 196L78 328H606L582 196H54ZM223 15L246 146H377L354 15H223ZM286 377L309 508H440L417 377H286Z" />
<glyph unicode="&#xf8;" horiz-adv-x="667" d="M294 -12Q213 -12 154 12T62 85T30 208Q30 229 31 249T37 287Q52 372 97 428T212 512T371 540Q453 540 512 516T604 442T637 318Q637 248 619 194T568 98Q538 61 496 37T404 0T294 -12ZM308 123Q343 123 367 136T405
175T426 235Q432 270 435 287T438 313T439 327Q439 352 431 369T404 395T357 405Q322 405 298 392T260 353T239 292Q233 258 230 240T227 214T226 201Q226 177 234 160T261 133T308 123ZM-8 -38L582 566H674L84 -38H-8Z" />
<glyph unicode="&#xf9;" horiz-adv-x="667" d="M201 -13Q146 -13 110 4T57 52T39 129Q39 143 40 156T44 185L104 527H303L247 209Q246 204 246 200T245 190Q245 173 251 161T270 141T301 134Q320 134 336 140T365 158T386 185T398 217L453 527H652L559 -1H397V79H390Q365
48 335 28T271 -3T201 -13ZM321 592L192 721L195 725H390L455 592H321Z" />
<glyph unicode="&#xfa;" horiz-adv-x="667" d="M201 -13Q146 -13 110 4T57 52T39 129Q39 143 40 156T44 185L104 527H303L247 209Q246 204 246 200T245 190Q245 173 251 161T270 141T301 134Q320 134 336 140T365 158T386 185T398 217L453 527H652L559 -1H397V79H390Q365
48 335 28T271 -3T201 -13ZM296 592L408 725H613L614 721L435 592H296Z" />
<glyph unicode="&#xfb;" horiz-adv-x="667" d="M201 -13Q146 -13 110 4T57 52T39 129Q39 143 40 156T44 185L104 527H303L247 209Q246 204 246 200T245 190Q245 173 251 161T270 141T301 134Q320 134 336 140T365 158T386 185T398 217L453 527H652L559 -1H397V79H390Q365
48 335 28T271 -3T201 -13ZM168 592L326 725H494L604 592H460L375 681H433L316 592H168Z" />
<glyph unicode="&#xfc;" horiz-adv-x="667" d="M201 -13Q146 -13 110 4T57 52T39 129Q39 143 40 156T44 185L104 527H303L247 209Q246 204 246 200T245 190Q245 173 251 161T270 141T301 134Q320 134 336 140T365 158T386 185T398 217L453 527H652L559 -1H397V79H390Q365
48 335 28T271 -3T201 -13ZM201 586L225 725H377L353 586H201ZM421 586L445 725H597L573 586H421Z" />
<glyph unicode="&#xfd;" horiz-adv-x="611" d="M77 -210Q41 -210 10 -205T-40 -192L-19 -73H61Q96 -73 117 -60T149 -30T165 0L46 528H253L278 314Q281 291 283 269T289 223T295 177H302Q310 197 317 215T332 250T347 282T360 313L454 528H657L385 16Q359 -32
329 -73T263 -145T181 -193T77 -210ZM269 592L381 725H586L587 721L408 592H269Z" />
<glyph unicode="&#xfe;" horiz-adv-x="666" d="M-21 -197L141 725H340L297 479H303Q324 501 347 514T397 533T451 540Q509 540 551 517T615 448T638 339Q638 314 636 291T630 244Q617 171 584 113T496 22T367 -12Q336 -12 310 -5T262 15T228 48H221L178 -197H-21ZM323
128Q355 128 377 145T413 191T433 253Q435 263 436 272T437 292T438 312Q438 335 431 353T409 382T368 393Q336 393 314 376T277 331T257 268Q256 260 255 251T253 232T252 214Q252 191 259 172T282 140T323 128Z" />
<glyph unicode="&#xff;" horiz-adv-x="611" d="M77 -210Q41 -210 10 -205T-40 -192L-19 -73H61Q96 -73 117 -60T149 -30T165 0L46 528H253L278 314Q281 291 283 269T289 223T295 177H302Q310 197 317 215T332 250T347 282T360 313L454 528H657L385 16Q359 -32
329 -73T263 -145T181 -193T77 -210ZM174 586L198 725H350L326 586H174ZM394 586L418 725H570L546 586H394Z" />
<glyph unicode="&#x2013;" horiz-adv-x="500" d="M-12 196L12 334H512L488 196H-12Z" />
<glyph unicode="&#x2014;" horiz-adv-x="1000" d="M-12 196L12 334H1012L988 196H-12Z" />
<glyph unicode="&#x2018;" horiz-adv-x="278" d="M307 688L293 613Q271 612 248 596T206 555T182 500H273L242 325H56L84 479Q96 545 129 590T210 660T307 688Z" />
<glyph unicode="&#x2019;" horiz-adv-x="278" d="M57 325L71 400Q93 402 116 417T158 458T182 513H91L122 688H308L280 534Q269 468 235 423T154 353T57 325Z" />
<glyph unicode="&#x201a;" horiz-adv-x="278" d="M-34 -188L-20 -113Q2 -111 25 -96T67 -55T91 0H0L31 175H217L189 21Q178 -45 144 -90T63 -160T-34 -188Z" />
<glyph unicode="&#x201c;" horiz-adv-x="508" d="M537 688L523 613Q501 612 478 596T436 555T412 500H503L472 325H286L314 479Q326 545 359 590T440 660T537 688ZM307 688L293 613Q271 612 248 596T206 555T182 500H273L242 325H56L84 479Q96 545 129 590T210
660T307 688Z" />
<glyph unicode="&#x201d;" horiz-adv-x="508" d="M57 325L71 400Q93 402 116 417T158 458T182 513H91L122 688H308L280 534Q269 468 235 423T154 353T57 325ZM287 325L301 400Q323 402 346 417T388 458T412 513H321L352 688H538L510 534Q499 468 465 423T384 353T287
325Z" />
<glyph unicode="&#x201e;" horiz-adv-x="508" d="M-34 -188L-20 -113Q2 -111 25 -96T67 -55T91 0H0L31 175H217L189 21Q178 -45 144 -90T63 -160T-34 -188ZM196 -188L210 -113Q232 -111 255 -96T297 -55T321 0H230L261 175H447L419 21Q408 -45 374 -90T293 -160T196
-188Z" />
<glyph unicode="&#x2022;" horiz-adv-x="500" d="M237 184Q201 184 170 198T120 243T100 319Q100 373 125 415T193 482T293 506Q329 506 360 492T411 447T430 371Q430 317 405 275T337 208T237 184Z" />
<glyph unicode="&#x2039;" horiz-adv-x="359" d="M166 119L35 324L238 528H381L207 324L309 119H166Z" />
<glyph unicode="&#x203a;" horiz-adv-x="358" d="M214 533L345 328L142 124H-1L173 328L71 533H214Z" />
</font>
</defs>
</svg>
