<?xml version="1.0" standalone="no"?>
<!DOCTYPE svg PUBLIC "-//W3C//DTD SVG 1.1//EN" "http://www.w3.org/Graphics/SVG/1.1/DTD/svg11.dtd">
<svg xmlns="http://www.w3.org/2000/svg">
<defs >
<font id="Archivo" horiz-adv-x="577" ><font-face
    font-family="Archivo SemiBold ExtraBold"
    units-per-em="1000"
    panose-1="0 0 0 0 0 0 0 0 0 0"
    ascent="878"
    descent="-210"
    alphabetic="0" />
<glyph unicode=" " horiz-adv-x="189" />
<glyph unicode="!" horiz-adv-x="314" d="M99 216L146 687H319L197 216H99ZM33 0L59 149H215L188 0H33Z" />
<glyph unicode="&quot;" horiz-adv-x="473" d="M118 402L107 540L133 687H280L254 540L193 402H118ZM328 402L316 540L342 687H490L464 540L403 402H328Z" />
<glyph unicode="#" horiz-adv-x="625" d="M81 -11L117 163H32V267H141L169 394H78V500H190L234 699H346L302 500H417L460 699H572L528 500H613V394H508L481 267H574V163H456L419 -11H309L347 163H229L192 -11H81ZM252 267H369L396 394H279L252 267Z" />
<glyph unicode="$" horiz-adv-x="578" d="M193 -59L335 741H401L259 -59H193ZM266 68Q216 68 173 77T97 103T46 148T27 209Q27 219 29 230T33 249H188Q187 244 186 239T185 230Q185 212 196 200T228 182T273 177Q289 177 307 179T340 187T365 202T374 227Q374
241 365 250T339 266T301 278T255 289Q224 297 193 306T135 331T93 371T77 430Q77 479 97 515T154 574T239 608T342 620Q386 620 426 612T497 588T547 548T565 492Q565 480 563 468T559 451H405Q406 456 406 459T407 465Q407 481 398 491T371 506T330 511Q313 511
297 508T269 500T249 486T242 466Q242 451 255 442T291 426T339 413Q371 405 406 397T471 373T521 333T540 267Q540 211 519 173T459 112T372 79T266 68Z" />
<glyph unicode="%" horiz-adv-x="984" d="M167 0L745 687H849L271 0H167ZM265 340Q187 340 148 373T109 472Q109 484 110 497T114 523Q124 581 149 620T214 679T312 699Q389 699 427 666T466 567Q466 555 465 543T462 516Q452 459 428 420T363 361T265 340ZM702
-12Q625 -12 586 21T547 119Q547 132 548 145T552 173Q563 230 587 268T651 327T749 347Q827 347 866 314T905 214Q905 203 904 190T900 162Q889 105 865 67T801 8T702 -12ZM270 415Q306 415 323 441T348 506Q351 523 352 533T355 551T356 565Q356 593 345 608T305
624Q270 624 253 598T227 533Q225 517 223 507T220 489T219 475Q219 447 231 431T270 415ZM708 63Q747 63 763 91T790 172Q792 181 792 188T793 201T794 213Q794 241 783 256T744 272Q705 272 689 244T662 163Q660 155 660 148T659 135T658 123Q658 95 669 79T708
63Z" />
<glyph unicode="&amp;" horiz-adv-x="816" d="M343 -12Q247 -12 182 10T84 71T50 163Q50 213 71 251T129 317T210 355L211 359Q174 375 150 406T126 483Q126 537 152 577T223 644T327 685T449 699Q536 699 598 678T694 621T728 536Q728 529 727 517T721 486H568Q571
498 571 503T571 512Q571 532 557 546T516 569T447 577Q409 577 380 569T332 546T302 512T291 469Q291 448 301 434T330 413T371 406H458L438 293H340Q318 293 297 287T260 269T234 237T224 189Q224 164 237 147T279 120T351 110Q406 110 441 122T496 157T520 209L554
406H823L803 293H688L673 212Q661 144 622 94T514 16T343 -12Z" />
<glyph unicode="&apos;" horiz-adv-x="263" d="M118 402L107 540L133 687H280L254 540L193 402H118Z" />
<glyph unicode="(" horiz-adv-x="374" d="M156 -159Q95 -76 69 27T55 239Q63 330 96 418T183 588T312 736H415Q372 684 335 623T269 495T221 362T197 231Q191 166 196 97T217 -38T257 -159H156Z" />
<glyph unicode=")" horiz-adv-x="374" d="M228 737Q289 654 315 551T329 339Q322 248 289 160T201 -9T72 -158H-31Q12 -106 49 -45T115 83T163 216T187 347Q194 412 189 481T168 617T127 737H228Z" />
<glyph unicode="*" horiz-adv-x="407" d="M172 325L206 452L91 379L61 453L183 506L80 561L136 634L225 561L236 688H321L286 561L402 634L432 561L308 506L413 453L357 379L268 452L257 325H172Z" />
<glyph unicode="+" horiz-adv-x="649" d="M218 0L254 202H62L83 318H276L311 520H429L393 318H586L565 202H372L336 0H218Z" />
<glyph unicode="," horiz-adv-x="318" d="M-10 -179L2 -109Q28 -106 50 -91T89 -52T109 0H25L55 167H227L201 18Q193 -31 173 -67T124 -126T61 -163T-10 -179Z" />
<glyph unicode="-" horiz-adv-x="333" d="M30 204L54 341H306L282 204H30Z" />
<glyph unicode="." horiz-adv-x="318" d="M26 0L56 167H229L199 0H26Z" />
<glyph unicode="/" horiz-adv-x="302" d="M-55 -48L276 736H385L55 -48H-55Z" />
<glyph unicode="0" horiz-adv-x="625" d="M277 -12Q199 -12 148 12T71 88T46 215Q46 234 47 255T52 299T60 347Q76 438 101 504T164 614T254 678T377 699Q457 699 507 675T583 600T608 473Q608 454 606 433T602 389T594 342Q579 250 553 184T490 74T400 9T277
-12ZM284 107Q318 107 340 120T379 163T407 241T432 359Q436 383 439 401T444 435T446 462T447 484Q447 534 429 557T370 580Q336 580 313 567T275 524T247 446T221 328Q217 304 214 286T209 253T207 226T206 204Q206 155 224 131T284 107Z" />
<glyph unicode="1" horiz-adv-x="625" d="M29 0L52 129H216L281 496H116L134 593Q163 595 199 603T273 625T348 654T415 688H479L380 129H535L512 0H29Z" />
<glyph unicode="2" horiz-adv-x="625" d="M-2 0L6 41Q15 90 43 131T110 207T195 273T283 332T363 390T421 449T443 512Q443 536 425 556T362 576Q328 576 303 564T262 529T240 477L235 447H81Q87 513 111 561T176 639T268 684T378 699Q456 699 507 675T584 611T609
521Q609 477 595 440T555 371T498 312T431 262T361 216T295 172Q286 166 276 158T260 142H550L525 0H-2Z" />
<glyph unicode="3" horiz-adv-x="625" d="M279 -12Q194 -12 139 9T55 68T27 155Q27 165 28 178T34 208H186Q184 197 183 190T182 177Q182 143 207 126T279 108Q317 108 346 122T391 162T408 227Q408 252 397 266T368 287T326 293H261L280 406H339Q360 406 378
413T412 433T435 466T443 511Q443 532 434 547T406 570T361 579Q330 579 307 569T270 540T251 499L249 486H101L105 509Q115 564 150 607T244 674T379 699Q452 699 504 679T583 623T611 536Q611 491 593 456T544 396T477 359L476 355Q520 339 545 304T571 216Q571
143 532 92T426 15T279 -12Z" />
<glyph unicode="4" horiz-adv-x="626" d="M302 0L329 146H9L31 273Q76 329 121 396T209 541T286 699H460Q444 657 417 609T356 511T287 416T218 333T160 272H351L376 421Q391 440 408 465T443 517T474 570T497 617H570L510 272H601L579 146H488L461 0H302Z" />
<glyph unicode="5" horiz-adv-x="625" d="M283 -12Q202 -12 146 10T59 75T29 174Q29 184 30 195T33 218H186Q185 211 185 205T184 193Q184 168 194 149T225 120T276 109Q304 109 328 118T370 147T399 192T410 252Q410 293 387 316T321 339Q292 339 271 330T235
309T210 286L75 304L171 687H610L585 544H275L242 411Q254 419 272 429T317 446T380 453Q439 453 483 432T551 370T576 269Q576 183 537 120T432 23T283 -12Z" />
<glyph unicode="6" horiz-adv-x="625" d="M283 -12Q206 -12 152 12T70 87T42 219Q42 244 44 272T53 331Q77 469 119 549T227 664T380 699Q452 699 502 679T578 619T605 524Q605 513 604 501T601 475H447Q449 484 449 491T450 505Q450 543 431 561T372 580Q328
580 301 558T258 493T230 384Q245 397 267 409T318 430T378 439Q441 439 486 418T555 357T580 261Q580 198 558 148T495 62T401 7T283 -12ZM289 107Q318 107 341 118T380 148Q397 166 406 191T415 245Q415 271 406 290T377 319T329 329Q300 329 276 319T236 289Q219
271 211 246T202 191Q202 165 211 146T239 117T289 107Z" />
<glyph unicode="7" horiz-adv-x="625" d="M98 0Q112 77 143 151T217 294T311 426T418 543H93L119 687H658L643 601Q599 556 556 508T472 406T399 296T341 179T306 55Q303 41 301 29T296 0H98Z" />
<glyph unicode="8" horiz-adv-x="625" d="M267 -12Q186 -12 131 8T47 67T18 155Q18 201 35 239T84 305T159 350Q127 373 111 404T95 473Q95 523 115 564T173 636T260 682T369 699Q438 699 489 678T569 619T597 529Q597 491 584 458T544 397T479 350Q519 331 541
298T564 216Q564 146 527 95T423 16T267 -12ZM276 107Q293 107 308 110T338 120T363 136Q379 151 389 172T399 220Q399 256 375 274T309 293Q292 293 277 290T249 281T224 265Q207 250 197 229T187 179Q187 144 210 126T276 107ZM328 408Q345 408 360 411T388 420T411
436Q427 449 435 468T444 513Q444 547 421 564T360 581Q343 581 329 578T302 568T279 553Q264 540 255 520T246 473Q246 440 268 424T328 408Z" />
<glyph unicode="9" horiz-adv-x="625" d="M269 -12Q198 -12 148 9T71 69T44 163Q44 175 45 187T48 212H201Q200 203 200 196T199 182Q199 145 218 126T277 107Q322 107 348 129T391 194T419 303Q404 290 382 278T331 257T271 248Q208 248 163 269T94 331T69 426Q69
489 91 539T154 625T248 680T366 699Q443 699 497 675T579 600T607 468Q607 443 605 415T596 356Q573 219 530 139T422 23T269 -12ZM320 358Q349 358 373 369T413 398Q430 416 438 441T447 497Q447 523 438 541T409 570T360 580Q331 580 308 569T269 539Q252 521
243 496T234 442Q234 416 243 398T272 369T320 358Z" />
<glyph unicode=":" horiz-adv-x="334" d="M98 360L128 528H301L271 360H98ZM35 0L65 167H238L208 0H35Z" />
<glyph unicode=";" horiz-adv-x="334" d="M-3 -179L10 -109Q35 -106 57 -91T96 -52T116 0H32L62 167H234L208 18Q200 -31 180 -67T131 -126T68 -163T-3 -179ZM95 360L125 528H298L268 360H95Z" />
<glyph unicode="&lt;" horiz-adv-x="649" d="M518 -6L51 194L75 327L612 527L589 399L197 260L540 122L518 -6Z" />
<glyph unicode="=" horiz-adv-x="649" d="M81 311L103 427H605L584 311H81ZM43 91L63 207H566L545 91H43Z" />
<glyph unicode="&gt;" horiz-adv-x="649" d="M37 -6L60 127L452 266L109 405L130 527L597 327L573 194L37 -6Z" />
<glyph unicode="?" horiz-adv-x="612" d="M228 221L236 270Q241 300 256 323T293 364T337 400T379 434T411 470T424 514Q424 529 418 543T396 566T353 575Q329 575 311 568T279 547T258 516T247 481Q246 474 246 468T245 455H89Q89 500 103 538T144 606T205 657T284
688T376 699Q428 699 469 687T541 653T586 600T602 528Q602 486 587 454T547 397T494 353T441 317T398 284T377 247L373 221H228ZM183 0L211 159H376L348 0H183Z" />
<glyph unicode="@" horiz-adv-x="1005" d="M449 -156Q344 -156 268 -132T142 -61T68 53T43 205Q43 287 59 355T107 478T184 575T289 645T419 687T574 701Q665 701 739 681T865 622T946 523T974 386Q974 327 964 273T931 173T875 93T794 40T686 21Q653 21 628 30T588
55T567 91L561 93Q535 58 499 40T423 21Q375 21 340 41T285 101T266 200Q266 224 268 247T274 292Q283 343 302 385T348 458T410 504T485 521Q515 521 537 514T577 491T608 451H614L646 510H757L736 393Q729 355 723 320T711 256T702 203T696 167T693 149Q693 135
702 130T727 124Q760 124 784 139T826 181T854 241T870 311T875 383Q875 460 840 511T738 587T574 612Q491 612 424 596T304 546T215 464T161 352T143 212Q143 146 160 95T216 7T315 -48T464 -67Q488 -67 515 -65T569 -60T618 -52T656 -42L640 -132Q618 -138 586
-143T519 -152T449 -156ZM471 138Q496 138 514 149T544 180T564 224Q570 237 573 250T580 276T584 301T585 322Q585 348 578 367T557 395T518 405Q494 405 477 396T448 370T427 327Q422 313 418 298T412 269T408 240T406 215Q406 178 420 158T471 138Z" />
<glyph unicode="A" horiz-adv-x="746" d="M-38 0L341 687H556L692 0H508L488 119H212L150 0H-38ZM280 253H467L443 396Q441 414 438 431T432 466T427 500T423 531H419Q409 510 397 486T374 438T352 395L280 253Z" />
<glyph unicode="B" horiz-adv-x="745" d="M28 0L150 687H536Q601 687 644 667T710 612T732 532Q732 490 714 454T663 393T589 359L588 355Q633 341 663 306T693 212Q693 143 661 96T574 24T454 0H28ZM233 138H426Q451 138 471 148T502 177T513 224Q513 252 497
269T443 286H258L233 138ZM281 414H459Q481 414 497 420T524 438T539 464T544 495Q544 523 528 538T484 554H306L281 414Z" />
<glyph unicode="C" horiz-adv-x="752" d="M353 -12Q205 -12 128 54T50 256Q50 281 52 306T59 358Q79 467 130 543T262 659T451 699Q539 699 604 674T706 600T742 478Q742 464 741 449T737 418H561Q563 427 563 435T564 451Q564 486 550 510T510 546T445 559Q402
559 369 546T312 508T272 448T248 371Q243 345 240 328T236 299T234 278T233 261Q233 219 247 189T290 144T363 128Q412 128 448 144T509 192T541 267H710Q695 174 648 112T526 19T353 -12Z" />
<glyph unicode="D" horiz-adv-x="755" d="M29 0L150 687H425Q573 687 653 622T733 420Q733 398 731 375T725 327Q706 220 655 147T523 37T335 0H29ZM233 140H335Q377 140 411 152T470 187T512 243T536 319Q542 349 544 366T548 395T549 414Q549 458 534 487T487
532T409 547H304L233 140Z" />
<glyph unicode="E" horiz-adv-x="699" d="M28 0L150 687H718L693 547H305L282 418H621L597 281H258L233 140H628L603 0H28Z" />
<glyph unicode="F" horiz-adv-x="641" d="M28 0L150 687H678L653 547H305L278 399H584L560 262H255L208 0H28Z" />
<glyph unicode="G" horiz-adv-x="815" d="M345 -12Q205 -12 128 54T51 254Q51 295 56 333T71 404Q96 500 151 565T288 665T469 699Q536 699 593 686T692 647T758 582T782 490Q782 479 781 468T778 445H602Q603 450 603 454T603 463Q603 486 594 504T566 534T523
552T471 559Q425 559 387 547T321 510T275 451T249 371Q244 346 242 330T238 301T235 281T234 265Q234 220 251 190T300 144T382 128Q429 128 469 143T537 184T569 246L570 251H385L408 377H766L700 0H596L590 73Q557 45 519 26T439 -2T345 -12Z" />
<glyph unicode="H" horiz-adv-x="787" d="M28 0L150 687H329L283 423H561L608 687H787L666 0H486L535 277H257L208 0H28Z" />
<glyph unicode="I" horiz-adv-x="329" d="M28 0L150 687H329L208 0H28Z" />
<glyph unicode="J" horiz-adv-x="630" d="M256 -12Q139 -12 78 33T16 168Q16 181 18 197T25 239H196Q192 219 191 207T190 188Q190 157 207 143T263 128Q306 128 334 155T373 238L452 687H631L552 234Q537 148 498 94T397 14T256 -12Z" />
<glyph unicode="K" horiz-adv-x="770" d="M28 0L150 687H329L277 393L590 687H822L518 406L706 0H502L377 286L238 171L208 0H28Z" />
<glyph unicode="L" horiz-adv-x="623" d="M29 0L150 687H329L234 147H578L552 0H29Z" />
<glyph unicode="M" horiz-adv-x="914" d="M28 0L150 687H401L431 381Q433 364 435 336T439 279T442 225H449Q459 250 469 276T491 330T513 382L652 687H914L792 0H618L678 336Q683 365 690 399T704 464T716 513H709Q705 502 699 486T686 455T675 429L477 0H326L285
424Q284 445 282 469T279 512H272Q270 486 268 454T262 390T254 336L195 0H28Z" />
<glyph unicode="N" horiz-adv-x="787" d="M28 0L150 687H308L495 362Q503 349 512 333T530 301T546 272L551 274Q553 292 556 310T561 343L621 687H787L666 0H509L315 332Q306 347 293 371T270 413L265 412Q263 393 259 371T253 334L195 0H28Z" />
<glyph unicode="O" horiz-adv-x="810" d="M369 -12Q268 -12 197 18T88 109T50 260Q50 283 52 305T59 351Q78 463 129 540T265 658T468 699Q570 699 641 669T750 577T788 425Q788 404 786 382T780 338Q761 225 709 147T571 29T369 -12ZM378 128Q423 128 459 141T521
180T565 241T591 323Q595 346 597 362T601 388T603 406T604 420Q604 463 588 494T539 542T458 559Q414 559 378 546T316 508T272 446T246 365Q242 341 240 325T236 299T235 281T234 267Q234 224 250 193T298 145T378 128Z" />
<glyph unicode="P" horiz-adv-x="698" d="M28 0L150 687H503Q573 687 620 663T691 596T715 496Q715 437 696 389T642 306T558 251T449 232H249L208 0H28ZM274 370H423Q457 370 481 383T518 421T531 477Q531 511 511 529T450 548H305L274 370Z" />
<glyph unicode="Q" horiz-adv-x="810" d="M481 -131L383 -12Q380 -12 377 -12T369 -12Q268 -12 197 18T88 109T50 260Q50 283 52 305T59 351Q78 463 129 540T265 658T468 699Q570 699 641 669T750 577T788 425Q788 404 786 382T780 338Q761 222 705 142T559 24L688
-131H481ZM378 128Q423 128 459 141T521 180T565 241T591 323Q595 346 597 362T601 388T603 406T604 420Q604 463 588 494T539 542T458 559Q414 559 378 546T316 508T272 446T246 365Q242 341 240 325T236 299T235 281T234 267Q234 224 250 193T298 145T378 128Z"
/>
<glyph unicode="R" horiz-adv-x="750" d="M29 0L150 687H535Q606 687 652 665T722 603T745 513Q745 452 726 405T673 325T589 272L679 0H483L412 242H251L208 0H29ZM275 375H453Q481 375 505 388T544 427T559 484Q559 515 541 533T491 551H305L275 375Z" />
<glyph unicode="S" horiz-adv-x="697" d="M330 -12Q266 -12 210 -3T113 27T48 82T24 167Q24 181 26 197T32 227H205Q203 220 201 211T199 195Q199 170 214 155T256 132T319 125Q348 125 372 129T415 141T444 163T455 197Q455 216 441 229T404 251T351 268T289
285Q253 295 217 308T152 341T106 391T88 466Q88 529 114 572T184 644T283 686T398 699Q457 699 507 689T595 658T654 605T675 528Q675 520 674 510T670 481H499Q501 489 501 493T501 502Q501 531 476 549T402 567Q363 567 335 559T291 536T276 501Q276 486 285
475T312 456T351 440T401 427Q440 417 482 405T562 371T621 318T644 237Q644 172 618 125T548 48T447 3T330 -12Z" />
<glyph unicode="T" horiz-adv-x="675" d="M201 0L297 540H74L100 687H725L699 540H476L381 0H201Z" />
<glyph unicode="U" horiz-adv-x="783" d="M357 -12Q221 -12 145 43T69 209Q69 224 70 240T75 273L148 687H327L254 271Q253 263 252 253T250 234Q250 184 279 156T367 128Q435 128 477 166T532 270L606 687H785L710 261Q694 170 648 109T529 18T357 -12Z" />
<glyph unicode="V" horiz-adv-x="729" d="M215 0L89 687H274L327 335Q330 313 334 286T341 234T347 190H353Q364 213 377 239T403 292T426 339L600 687H790L423 0H215Z" />
<glyph unicode="W" horiz-adv-x="979" d="M131 0L83 687H258L279 326Q280 313 280 296T281 262T282 229H286Q292 245 298 262T310 296T321 326L463 687H658L676 326Q677 313 677 296T678 262T679 229H683Q689 244 695 261T707 295T719 326L864 687H1047L751 0H550L529
380Q528 396 528 413T527 447T525 479H521Q516 464 510 447T497 412T485 380L332 0H131Z" />
<glyph unicode="X" horiz-adv-x="736" d="M-40 0L280 364L105 687H311L403 491H407L569 687H781L491 359L683 0H478L371 229H366L175 0H-40Z" />
<glyph unicode="Y" horiz-adv-x="732" d="M232 0L280 272L84 687H277L392 429H397L598 687H799L459 272L411 0H232Z" />
<glyph unicode="Z" horiz-adv-x="682" d="M-18 0L-5 72L408 547H103L128 687H716L704 615L289 140H628L603 0H-18Z" />
<glyph unicode="[" horiz-adv-x="366" d="M16 -160L173 736H416L400 641H291L167 -65H276L259 -160H16Z" />
<glyph unicode="\" horiz-adv-x="302" d="M146 -48L83 736H184L247 -48H146Z" />
<glyph unicode="]" horiz-adv-x="366" d="M358 734L201 -162H-42L-26 -67H83L208 639H99L115 734H358Z" />
<glyph unicode="^" horiz-adv-x="649" d="M106 317L336 687H462L563 317H441L380 562L234 317H106Z" />
<glyph unicode="_" horiz-adv-x="534" d="M-75 -166L-57 -63H476L458 -166H-75Z" />
<glyph unicode="`" horiz-adv-x="247" d="M188 592L81 721L83 724H244L305 592H188Z" />
<glyph unicode="a" horiz-adv-x="630" d="M210 -12Q153 -12 111 10T47 77T24 185Q24 205 26 226T32 272Q48 363 82 422T168 510T283 539Q317 539 345 531T396 507T433 463H440L479 527H611L587 398Q581 362 574 325T561 255T550 195T543 151T540 129Q540 115 547
109T567 102H598L581 6Q564 -1 541 -6T493 -12Q463 -12 441 -4T404 23Q397 31 393 43T386 68H379Q347 29 303 9T210 -12ZM274 116Q299 116 320 126T357 154T384 197T400 252Q404 272 405 284T407 305T408 320Q408 348 400 368T373 400T326 411Q289 411 264 397T224
353T201 281Q196 255 194 240T191 216T190 200Q190 159 209 138T274 116Z" />
<glyph unicode="b" horiz-adv-x="633" d="M341 -12Q286 -12 244 9T182 73H175L150 0H17L143 724H307L263 473H270Q289 495 312 509T363 531T421 539Q478 539 519 517T582 451T605 342Q605 323 603 301T596 255Q581 165 546 106T458 17T341 -12ZM302 116Q339 116
364 130T404 174T428 246Q433 272 435 287T438 311T439 327Q439 355 431 373T403 401T354 411Q328 411 307 401T271 373T244 330T227 275Q224 256 222 243T220 222T219 207Q219 179 227 159T254 127T302 116Z" />
<glyph unicode="c" horiz-adv-x="612" d="M280 -12Q200 -12 145 11T61 81T32 200Q32 225 34 249T42 296Q53 353 78 397T142 474T232 522T345 539Q417 539 471 519T555 461T586 367Q586 356 585 345T582 321H421Q422 328 422 334T423 346Q423 370 414 386T386 412T338
421Q300 421 274 404T231 357T208 284Q203 258 201 242T197 217T196 200Q196 169 206 149T236 118T288 107Q322 107 346 118T386 152T408 207H562Q550 133 511 84T413 12T280 -12Z" />
<glyph unicode="d" horiz-adv-x="633" d="M215 -12Q157 -12 115 11T51 79T29 187Q29 207 31 228T37 274Q49 341 72 391T127 474T199 523T289 539Q323 539 351 532T402 510T437 473H443L487 724H651L524 0H390V73H383Q351 30 308 9T215 -12ZM278 116Q315 116 340
132T382 180T405 252Q409 271 410 283T413 304T414 320Q414 348 405 368T378 400T331 411Q294 411 269 397T229 354T207 283Q202 257 199 241T196 216T195 199Q195 158 214 137T278 116Z" />
<glyph unicode="e" horiz-adv-x="619" d="M290 -12Q207 -12 150 10T62 80T32 199Q32 224 34 247T41 294Q55 370 94 424T196 509T342 539Q422 539 476 518T559 452T587 339Q587 320 585 295T574 231H196Q194 222 193 212T192 192Q192 163 202 143T234 112T290 102Q316
102 336 107T370 124T393 152T406 188H566Q558 140 536 103T478 40T395 1T290 -12ZM212 322H422Q424 329 424 336T425 349Q425 375 416 392T388 417T344 426Q309 426 283 414T240 378T212 322Z" />
<glyph unicode="f" horiz-adv-x="352" d="M18 -197Q3 -197 -16 -195T-54 -189T-85 -181L-66 -77H-15Q12 -77 26 -63T45 -22L120 408H46L67 527H142L149 570Q160 626 182 662T243 716T338 734Q355 734 374 732T410 726T438 718L420 615H372Q344 615 331 603T312
566L306 527H404L383 408H284L206 -36Q197 -86 176 -122T117 -178T18 -197Z" />
<glyph unicode="g" horiz-adv-x="632" d="M226 -197Q153 -197 104 -182T29 -138T4 -69Q4 -62 5 -49T11 -20H170Q169 -23 169 -26T168 -32Q168 -46 176 -55T201 -70T240 -75Q279 -75 305 -62T345 -23T366 35Q368 49 370 62T375 88H368Q347 66 323 51T270 29T211
22Q156 22 116 43T54 106T32 213Q32 230 33 249T39 289Q62 417 129 478T294 539Q348 539 387 518T447 454H454L481 527H615L531 49Q515 -39 475 -93T373 -172T226 -197ZM283 148Q309 148 330 157T367 184T393 223T408 273Q410 288 411 297T413 313T414 326Q414
352 405 371T378 400T330 411Q295 411 270 397T229 357T207 292Q203 273 202 261T200 242T199 228Q199 203 207 186T234 158T283 148Z" />
<glyph unicode="h" horiz-adv-x="629" d="M17 0L143 724H307L263 470H269Q289 491 315 506T372 530T433 539Q482 539 516 524T570 478T589 400Q589 385 587 369T582 334L523 0H359L415 317Q416 326 417 334T418 349Q418 370 411 383T390 403T356 410Q334 410 313
403T276 380T249 344T232 297L180 0H17Z" />
<glyph unicode="i" horiz-adv-x="288" d="M120 598L142 724H306L284 598H120ZM16 0L109 527H273L180 0H16Z" />
<glyph unicode="j" horiz-adv-x="286" d="M118 598L140 724H304L282 598H118ZM-6 -197Q-22 -197 -43 -195T-85 -189T-118 -181L-100 -77H-49Q-22 -77 -8 -63T11 -22L108 527H272L172 -37Q163 -87 144 -123T88 -178T-6 -197Z" />
<glyph unicode="k" horiz-adv-x="610" d="M16 0L143 725H307L235 315L451 527H642L418 319L556 0H379L295 212L203 134L180 0H16Z" />
<glyph unicode="l" horiz-adv-x="288" d="M16 0L143 724H307L180 0H16Z" />
<glyph unicode="m" horiz-adv-x="937" d="M16 0L109 527H243V452H250Q271 479 298 498T358 528T423 539Q480 539 516 518T565 452H572Q594 479 622 498T681 528T747 539Q819 539 858 506T897 402Q897 387 895 371T890 338L830 0H666L723 319Q724 328 725 336T726
351Q726 371 719 384T700 403T668 410Q641 410 618 396T580 357T558 300L505 0H341L398 319Q399 328 400 336T401 351Q401 371 394 384T375 403T343 410Q316 410 293 396T255 357T233 300L180 0H16Z" />
<glyph unicode="n" horiz-adv-x="629" d="M16 0L109 527H243V451H250Q272 479 301 498T363 528T431 539Q481 539 516 524T570 478T589 400Q589 385 587 369T582 334L523 0H359L415 317Q416 326 417 334T419 350Q419 370 412 383T390 403T356 410Q334 410 313 403T276
380T249 344T233 297L180 0H16Z" />
<glyph unicode="o" horiz-adv-x="635" d="M278 -12Q200 -12 145 11T60 81T30 199Q30 219 32 239T38 280Q53 368 95 425T203 511T355 539Q435 539 490 516T575 446T605 327Q605 280 595 241T564 170Q540 108 500 68T405 8T278 -12ZM290 107Q331 107 358 123T403
169T428 245Q433 272 435 287T438 312T439 328Q439 358 429 378T399 409T344 420Q303 420 276 404T231 358T206 282Q201 255 199 239T195 215T194 199Q194 169 204 149T235 118T290 107Z" />
<glyph unicode="p" horiz-adv-x="633" d="M-16 -186L109 527H242L244 454H251Q284 499 326 519T417 539Q477 539 518 517T582 451T604 340Q604 321 602 299T596 253Q580 164 545 105T459 17T344 -12Q310 -12 282 -5T232 17T196 54H190L147 -186H-16ZM302 116Q340
116 364 130T404 174T427 244Q432 270 434 286T437 311T438 328Q438 356 430 374T403 401T354 411Q319 411 293 395T251 348T228 276Q224 256 222 243T220 222T219 207Q219 179 227 159T254 127T302 116Z" />
<glyph unicode="q" horiz-adv-x="633" d="M327 -186L369 54H362Q343 33 320 18T269 -4T212 -12Q155 -12 114 10T50 76T28 185Q28 205 30 226T37 272Q53 363 88 422T175 510T292 539Q347 539 388 518T448 454H455L482 527H616L491 -186H327ZM279 116Q305 116 325
126T362 154T389 197T405 252Q409 272 410 284T412 305T413 320Q413 348 405 368T378 400T331 411Q294 411 269 397T229 353T206 281Q201 255 199 240T195 216T194 200Q194 159 214 138T279 116Z" />
<glyph unicode="r" horiz-adv-x="407" d="M16 0L109 527H242V446H249Q265 473 286 494T333 528T392 540Q411 540 425 537T447 529L422 386H370Q339 386 314 377T271 351T241 309T224 250L180 0H16Z" />
<glyph unicode="s" horiz-adv-x="579" d="M252 -12Q202 -12 159 -3T83 23T32 67T13 129Q13 139 15 150T19 169H174Q173 164 172 159T171 150Q171 132 182 120T214 102T259 96Q275 96 293 98T326 107T351 122T360 147Q360 161 351 170T325 186T287 198T241 209Q210
217 179 226T121 251T79 290T63 350Q63 399 83 435T140 494T225 528T328 540Q372 540 412 532T483 508T533 468T551 412Q551 399 549 388T545 371H391Q392 376 392 379T393 385Q393 401 384 411T357 426T316 431Q299 431 283 428T255 420T235 406T228 386Q228 371
241 362T277 346T325 333Q357 325 392 317T457 293T507 253T526 187Q526 131 505 93T445 32T358 -1T252 -12Z" />
<glyph unicode="t" horiz-adv-x="385" d="M204 -12Q158 -12 128 0T83 35T68 94Q68 104 70 120T76 164L119 408H50L70 527H145L206 681H330L303 527H406L385 408H282L242 181Q241 172 240 162T238 145Q238 127 247 117T280 107H332L314 5Q300 1 280 -3T240 -10T204 -12Z" />
<glyph unicode="u" horiz-adv-x="629" d="M196 -13Q147 -13 112 2T58 48T39 126Q39 142 41 158T46 193L104 527H269L213 209Q211 200 210 192T209 177Q209 156 216 143T238 123T272 116Q294 116 314 124T351 147T378 183T395 229L448 527H612L519 -1H385V75H378Q356
48 327 28T265 -2T196 -13Z" />
<glyph unicode="v" horiz-adv-x="574" d="M153 0L50 527H217L249 326Q252 307 255 282T263 227T270 167H276Q288 197 300 225T325 279T347 326L448 527H618L326 0H153Z" />
<glyph unicode="w" horiz-adv-x="859" d="M131 0L48 527H216L232 330Q234 310 235 283T239 229T242 182H248Q256 204 267 232T290 286T308 329L393 527H561L576 328Q577 314 579 288T583 233T587 182H592Q600 202 611 229T633 282T652 328L739 527H904L634 0H470L452
220Q451 237 450 258T447 299T444 335H440Q434 321 426 301T409 260T392 221L295 0H131Z" />
<glyph unicode="x" horiz-adv-x="612" d="M-40 0L210 275L70 527H253L326 377H331L456 527H639L405 272L557 0H375L296 167H291L148 0H-40Z" />
<glyph unicode="y" horiz-adv-x="574" d="M70 -197Q32 -197 5 -192T-33 -182L-15 -77H54Q83 -77 104 -66T140 -38T165 0L49 527H217L254 301Q258 279 261 253T268 202T274 155H281Q288 172 295 190T311 227T326 263T341 295L449 527H618L351 21Q327 -25 299 -64T238
-134T163 -180T70 -197Z" />
<glyph unicode="z" horiz-adv-x="535" d="M-23 0L-11 64L284 408H64L85 527H548L537 465L240 119H486L465 0H-23Z" />
<glyph unicode="{" horiz-adv-x="391" d="M274 -160Q208 -160 164 -152T97 -121T74 -57Q74 -45 78 -18T89 44T102 112T113 169T118 199Q118 225 93 236T37 247L51 331Q83 331 114 344T151 389L190 608Q199 661 226 689T304 726T431 736L416 650Q399 650 379 647T343
633T322 599L278 399Q271 365 256 342T216 306T151 294L149 284Q198 284 219 263T241 203Q241 197 239 173T232 116T222 52T215 -3T212 -31Q212 -49 222 -58T250 -71T288 -74L274 -160Z" />
<glyph unicode="|" horiz-adv-x="265" d="M75 -202V725H190V-202H75Z" />
<glyph unicode="}" horiz-adv-x="391" d="M126 736Q193 736 237 728T303 698T326 633Q326 621 322 594T311 532T297 464T286 407T282 377Q282 351 307 340T363 329L348 245Q316 245 285 232T249 187L210 -32Q201 -85 173 -112T95 -150T-31 -160L-17 -74Q1 -74
21 -71T57 -56T78 -23L122 177Q130 212 144 235T184 270T248 282L250 292Q202 292 180 313T158 373Q158 379 161 403T168 460T177 524T185 579T188 607Q188 626 178 635T150 647T112 650L126 736Z" />
<glyph unicode="~" horiz-adv-x="649" d="M21 194L42 316Q42 316 55 327T91 354T145 380T213 392Q244 392 270 382T322 360T374 338T432 328Q467 328 498 339T552 366T590 392T604 404L582 283Q582 283 570 272T534 245T479 218T412 206Q381 206 355 216T303 238T251
261T192 271Q158 271 127 260T72 233T35 206T21 194Z" />
<glyph unicode="&#xa0;" horiz-adv-x="189" />
<glyph unicode="&#xa1;" horiz-adv-x="314" d="M-2 -160L120 311H218L171 -160H-2ZM102 378L128 527H284L257 378H102Z" />
<glyph unicode="&#xa2;" horiz-adv-x="616" d="M216 -59L357 741H423L281 -59H216ZM300 68Q221 68 166 91T82 161T53 280Q53 305 55 329T62 376Q73 433 99 477T163 554T253 602T365 619Q438 619 492 600T576 542T607 447Q607 437 606 425T603 401H442Q443 408
443 414T444 426Q444 450 435 466T407 492T359 501Q321 501 295 484T252 437T228 364Q224 338 222 322T218 297T217 280Q217 249 227 229T257 198T309 187Q343 187 367 198T407 232T429 287H583Q571 213 532 164T433 92T300 68Z" />
<glyph unicode="&#xa3;" horiz-adv-x="628" d="M9 0L31 126H96L123 282H36L55 397H143L161 496Q172 559 204 604T290 674T421 699Q490 699 538 680T612 624T638 539Q638 524 637 512T631 477H468Q470 490 471 497T472 508T473 516Q473 534 466 546T445 566T412
573Q390 573 372 564T342 540T326 503L307 397H442L423 282H286L244 126H546L524 0H9Z" />
<glyph unicode="&#xa4;" horiz-adv-x="623" d="M125 89L71 142L127 199Q104 228 92 265T79 344Q79 385 91 424T127 489L71 545L127 601L184 545Q210 567 248 579T326 592Q367 592 405 580T466 546L524 603L583 544L527 489Q550 464 561 425T573 344Q573 304 561
266T526 198L581 142L528 89L471 147Q446 122 407 109T326 96Q285 96 247 108T181 146L125 89ZM326 192Q368 192 400 213T451 269T470 344Q470 385 452 419T401 475T326 496Q285 496 253 476T201 421T182 344Q182 303 201 268T253 213T326 192Z" />
<glyph unicode="&#xa5;" horiz-adv-x="630" d="M189 0L215 146H17L32 233H230L240 288H42L57 375H213Q205 394 196 415T180 452L84 687H265L321 514Q325 504 329 492T337 466T345 440H349Q357 453 366 466T383 492T398 514L514 687H697L529 463Q513 443 495 419T461
375H616L601 288H405L395 233H591L576 146H380L353 0H189Z" />
<glyph unicode="&#xa6;" horiz-adv-x="265" d="M75 340V725H190V340H75ZM75 -202V183H190V-202H75Z" />
<glyph unicode="&#xa7;" horiz-adv-x="627" d="M243 -183Q201 -183 161 -176T89 -153T38 -113T19 -55Q19 -46 21 -37T24 -19H180Q179 -23 179 -26T178 -31Q178 -46 187 -56T212 -70T251 -75Q278 -75 299 -68T333 -48T345 -19Q345 0 329 14T287 42T230 68T167 97T110
133T67 180T51 243Q51 271 60 295T86 341T123 379T168 411Q145 430 130 456T115 515Q115 553 129 582T169 634T229 670T302 692T382 699Q424 699 464 692T536 669T587 629T606 572Q606 563 605 554T601 535H446Q447 539 447 542T447 547Q447 561 438 571T413 586T375
591Q347 591 326 584T293 564T280 535Q280 516 296 501T338 473T396 447T458 418T515 382T557 334T573 271Q573 243 564 219T539 174T501 136T457 105Q481 86 495 61T510 4Q510 -34 496 -64T456 -117T396 -154T323 -176T243 -183ZM372 155Q387 165 397 176T414
201T420 230Q420 254 406 272T368 304T314 332T253 360Q239 351 228 339T211 314T205 285Q205 261 219 243T258 211T312 183T372 155Z" />
<glyph unicode="&#xa8;" horiz-adv-x="345" d="M59 598L81 724H213L191 598H59ZM272 598L293 724H426L404 598H272Z" />
<glyph unicode="&#xa9;" horiz-adv-x="784" d="M407 -12Q329 -12 264 14T152 89T78 202T51 344Q51 421 77 486T151 598T264 672T407 699Q484 699 549 673T662 599T736 486T763 344Q763 267 737 202T662 89T549 15T407 -12ZM409 131Q343 131 299 154T233 225T211
343Q211 415 232 462T298 532T409 555Q467 555 507 536T569 478T590 384H486Q486 413 478 433T454 463T408 473Q360 473 340 443T319 344V343Q319 297 328 269T356 227T408 213Q437 213 455 223T481 253T490 300H590Q590 250 570 212T510 152T409 131ZM406 49Q490
49 554 87T656 192T694 344Q694 429 657 495T555 600T407 638Q323 638 258 600T156 496T119 344Q119 259 156 193T258 88T406 49Z" />
<glyph unicode="&#xaa;" horiz-adv-x="399" d="M172 330Q119 330 88 363T56 461Q56 477 57 493T62 526Q71 575 91 614T143 676T220 699Q252 699 274 688T313 647H317L342 691H427L409 595Q404 568 400 544T391 499T384 462T380 437T378 425Q378 415 383 411T395
406H414L403 342Q391 338 377 334T345 330Q325 330 310 337T286 360Q284 365 281 371T277 385H273Q253 358 226 344T172 330ZM210 412Q227 412 240 420T263 442T278 471Q286 492 290 514T295 556Q295 575 290 589T274 610T246 617Q212 617 195 590T170 527Q165
504 164 493T162 470Q162 443 173 428T210 412Z" />
<glyph unicode="&#xab;" horiz-adv-x="584" d="M170 122L51 325L237 527H360L198 325L289 122H170ZM397 122L277 325L463 527H587L424 325L515 122H397Z" />
<glyph unicode="&#xac;" horiz-adv-x="649" d="M420 172L451 346H52L75 474H601L547 172H420Z" />
<glyph unicode="&#xad;" horiz-adv-x="333" d="M30 204L54 341H306L282 204H30Z" />
<glyph unicode="&#xae;" horiz-adv-x="784" d="M407 -12Q329 -12 264 14T152 89T78 202T51 344Q51 421 77 486T151 598T264 672T407 699Q484 699 549 673T662 599T736 486T763 344Q763 267 737 202T662 89T549 15T407 -12ZM406 49Q490 49 554 87T656 192T694 344Q694
429 657 495T555 600T407 638Q323 638 258 600T156 496T119 344Q119 259 156 193T258 88T406 49ZM248 138V551H450Q515 551 548 517T581 426Q581 386 564 356T517 307L601 138H485L419 289H354V138H248ZM354 368H425Q446 368 459 382T473 420Q473 444 460 457T425
471H354V368Z" />
<glyph unicode="&#xaf;" horiz-adv-x="311" d="M61 608L77 700H388L371 608H61Z" />
<glyph unicode="&#xb0;" horiz-adv-x="400" d="M250 400Q210 400 176 420T121 474T101 549Q101 591 121 625T175 679T250 699Q292 699 326 679T380 625T401 549Q401 508 381 474T326 420T250 400ZM250 480Q279 480 298 500T318 549Q318 577 298 596T249 616Q222
616 202 597T182 549Q182 521 202 501T250 480Z" />
<glyph unicode="&#xb1;" horiz-adv-x="649" d="M215 160L249 353H57L78 470H270L304 663H422L388 470H580L560 353H367L333 160H215ZM-5 0L16 116H518L498 0H-5Z" />
<glyph unicode="&#xb2;" horiz-adv-x="391" d="M80 440L85 465Q91 493 110 517T155 560T210 597T262 631T302 665T318 701Q318 713 309 723T278 733Q261 733 248 727T227 710T216 684L213 669H126Q126 675 126 680T128 689Q135 728 157 753T213 790T287 803Q330
803 358 790T400 756T414 709Q414 684 405 663T381 626T347 595T308 569T268 544T232 520H383L369 440H80Z" />
<glyph unicode="&#xb3;" horiz-adv-x="391" d="M234 428Q165 428 131 453T96 516Q96 522 97 529T100 545H189Q187 539 187 535T186 529Q186 514 198 506T235 497Q255 497 269 503T291 523T299 553Q299 566 294 573T280 583T260 586H224L235 652H265Q279 652 291
657T310 674T318 701Q318 716 308 725T278 734Q263 734 252 730T233 717T222 695L221 689H133L135 702Q140 731 160 754T213 790T287 803Q347 803 381 780T416 715Q416 692 407 674T382 644T346 624L345 620Q369 611 381 593T394 548Q394 509 373 483T315 442T234
428Z" />
<glyph unicode="&#xb4;" horiz-adv-x="256" d="M58 592L166 724H336L337 721L181 592H58Z" />
<glyph unicode="&#xb5;" horiz-adv-x="632" d="M-18 -192L109 527H273L220 221Q218 208 216 197T214 177Q214 157 221 144T241 124T274 117Q297 117 317 124T353 147T381 185T398 235L450 527H615L522 0H390V76H382Q366 51 342 32T290 3T232 -8Q216 -8 203 -6T175
1Q174 -16 171 -40T165 -86L146 -192H-18Z" />
<glyph unicode="&#xb6;" horiz-adv-x="654" d="M180 -164L254 254Q200 255 159 280T96 349T80 451Q84 503 105 546T162 621T243 670T340 687H698L681 593H618L484 -164H376L510 593H422L288 -164H180Z" />
<glyph unicode="&#xb7;" horiz-adv-x="333" d="M85 261L113 419H275L247 261H85Z" />
<glyph unicode="&#xb8;" horiz-adv-x="245" d="M37 -198Q7 -198 -25 -195T-79 -185L-70 -132H29Q49 -132 62 -128T75 -103Q75 -93 67 -89T39 -85H-2L35 26H122L104 -31Q132 -34 156 -48T180 -95Q180 -127 165 -147T127 -178T80 -194T37 -198Z" />
<glyph unicode="&#xb9;" horiz-adv-x="391" d="M84 440L98 516H197L227 691H134L144 747Q167 749 195 756T252 774T303 796H342L292 516H385L371 440H84Z" />
<glyph unicode="&#xba;" horiz-adv-x="396" d="M225 329Q145 329 102 363T59 467Q59 483 60 498T65 529Q74 583 101 621T168 678T259 698Q340 698 382 664T425 561Q425 546 424 531T420 498Q410 444 383 407T315 349T225 329ZM224 407Q261 407 282 432T311 503Q314
519 315 529T317 545T318 559Q318 590 304 605T260 621Q222 621 201 595T172 526Q170 511 168 501T166 483T165 469Q165 438 179 423T224 407Z" />
<glyph unicode="&#xbb;" horiz-adv-x="584" d="M435 527L555 324L368 122H245L408 324L317 527H435ZM209 527L329 324L142 122H19L181 324L90 527H209Z" />
<glyph unicode="&#xbc;" horiz-adv-x="934" d="M141 -12L739 699H833L234 -12H141ZM66 340L80 416H179L209 591H116L126 647Q149 649 177 656T234 674T285 696H324L274 416H367L353 340H66ZM689 0L702 74H531L543 144Q579 186 615 242T681 363H778Q768 337 749
307T707 246T661 189T619 146H715L726 211Q737 224 749 241T773 277T792 311H837L808 146H856L843 74H795L782 0H689Z" />
<glyph unicode="&#xbd;" horiz-adv-x="934" d="M141 -12L739 699H833L234 -12H141ZM66 340L80 416H179L209 591H116L126 647Q149 649 177 656T234 674T285 696H324L274 416H367L353 340H66ZM527 0L532 25Q538 53 557 77T602 120T657 157T709 191T749 225T765 261Q765
273 756 283T725 293Q708 293 695 287T675 270T664 244L661 229H573Q573 235 573 240T575 249Q582 288 604 313T661 350T735 363Q777 363 805 350T847 316T861 269Q861 244 853 223T829 186T795 155T756 129T716 104T680 80H831L816 0H527Z" />
<glyph unicode="&#xbe;" horiz-adv-x="934" d="M141 -12L739 699H833L234 -12H141ZM216 328Q147 328 113 353T78 416Q78 422 79 429T82 445H171Q169 439 169 435T168 429Q168 414 180 406T217 397Q237 397 251 403T273 423T281 453Q281 466 276 473T262 483T242
486H206L217 552H247Q261 552 273 557T292 574T300 601Q300 616 290 625T260 634Q245 634 234 630T215 617T204 595L203 589H115L117 602Q122 631 142 654T195 690T269 703Q329 703 363 680T398 615Q398 592 389 574T364 544T328 524L327 520Q351 511 363 493T376
448Q376 410 355 383T297 342T216 328ZM674 0L687 74H516L528 144Q564 186 600 242T665 363H763Q753 337 734 307T692 246T646 189T604 146H700L711 211Q722 224 734 241T758 277T777 311H822L792 146H840L828 74H780L767 0H674Z" />
<glyph unicode="&#xbf;" horiz-adv-x="612" d="M236 -172Q185 -172 143 -160T72 -126T26 -73T10 -1Q10 42 25 74T65 130T118 174T172 210T215 244T235 280L239 306H384L376 257Q372 227 356 204T319 163T276 128T233 94T201 58T189 13Q189 -2 195 -16T217 -39T260
-48Q285 -48 304 -39T335 -16T355 15T365 51Q366 57 366 62T367 72H523Q523 27 509 -11T469 -79T408 -130T329 -161T236 -172ZM236 368L264 527H430L402 368H236Z" />
<glyph unicode="&#xc0;" horiz-adv-x="746" d="M-38 0L341 687H556L692 0H508L488 119H212L150 0H-38ZM280 253H467L443 396Q441 414 438 431T432 466T427 500T423 531H419Q409 510 397 486T374 438T352 395L280 253ZM408 745L294 874L295 877H461L525 745H408Z" />
<glyph unicode="&#xc1;" horiz-adv-x="746" d="M-38 0L341 687H556L692 0H508L488 119H212L150 0H-38ZM280 253H467L443 396Q441 414 438 431T432 466T427 500T423 531H419Q409 510 397 486T374 438T352 395L280 253ZM387 745L498 877H671L672 874L512 745H387Z" />
<glyph unicode="&#xc2;" horiz-adv-x="746" d="M-38 0L341 687H556L692 0H508L488 119H212L150 0H-38ZM280 253H467L443 396Q441 414 438 431T432 466T427 500T423 531H419Q409 510 397 486T374 438T352 395L280 253ZM261 745L407 877H554L650 745H524L448 841H505L393
745H261Z" />
<glyph unicode="&#xc3;" horiz-adv-x="746" d="M-38 0L341 687H556L692 0H508L488 119H212L150 0H-38ZM280 253H467L443 396Q441 414 438 431T432 466T427 500T423 531H419Q409 510 397 486T374 438T352 395L280 253ZM264 746Q270 780 287 810T333 858T400 877Q432
877 458 868T507 850T556 840Q573 840 585 849T605 877H680Q675 844 657 814T610 765T543 746Q511 746 486 755T437 774T387 784Q371 784 359 774T339 746H264Z" />
<glyph unicode="&#xc4;" horiz-adv-x="746" d="M-38 0L341 687H556L692 0H508L488 119H212L150 0H-38ZM280 253H467L443 396Q441 414 438 431T432 466T427 500T423 531H419Q409 510 397 486T374 438T352 395L280 253ZM289 751L310 877H443L421 751H289ZM501 751L523
877H656L634 751H501Z" />
<glyph unicode="&#xc5;" horiz-adv-x="746" d="M-38 0L341 687H556L692 0H508L488 119H212L150 0H-38ZM280 253H467L443 396Q441 414 438 431T432 466T427 500T423 531H419Q409 510 397 486T374 438T352 395L280 253ZM461 728Q417 728 389 753T361 818Q361 852
377 879T423 921T490 937Q534 937 562 912T591 847Q591 813 574 786T528 743T461 728ZM470 795Q485 795 495 800T512 814T519 836Q519 850 509 859T482 869Q468 869 457 864T440 849T433 827Q433 814 443 805T470 795Z" />
<glyph unicode="&#xc6;" horiz-adv-x="1010" d="M-50 0L383 687H1029L1004 547H621L632 418H931L907 281H641L652 140H939L914 0H494L486 120H212L141 0H-50ZM290 253H478L463 459Q463 468 463 477T461 495T460 514T459 532H455Q448 520 441 508T428 484T413 459L290
253Z" />
<glyph unicode="&#xc7;" horiz-adv-x="752" d="M353 -12Q205 -12 128 54T50 256Q50 281 52 306T59 358Q79 467 130 543T262 659T451 699Q539 699 604 674T706 600T742 478Q742 464 741 449T737 418H561Q563 427 563 435T564 451Q564 486 550 510T510 546T445 559Q402
559 369 546T312 508T272 448T248 371Q243 345 240 328T236 299T234 278T233 261Q233 219 247 189T290 144T363 128Q412 128 448 144T509 192T541 267H710Q695 174 648 112T526 19T353 -12ZM302 -198Q272 -198 239 -195T185 -185L195 -132H294Q314 -132 326 -128T339
-103Q339 -93 332 -89T304 -85H262L299 26H387L368 -31Q397 -34 421 -48T445 -95Q445 -127 430 -147T392 -178T345 -194T302 -198Z" />
<glyph unicode="&#xc8;" horiz-adv-x="699" d="M28 0L150 687H718L693 547H305L282 418H621L597 281H258L233 140H628L603 0H28ZM394 745L281 874L282 877H448L512 745H394Z" />
<glyph unicode="&#xc9;" horiz-adv-x="699" d="M28 0L150 687H718L693 547H305L282 418H621L597 281H258L233 140H628L603 0H28ZM374 745L485 877H658V874L499 745H374Z" />
<glyph unicode="&#xca;" horiz-adv-x="699" d="M28 0L150 687H718L693 547H305L282 418H621L597 281H258L233 140H628L603 0H28ZM248 745L393 877H540L637 745H510L434 841H492L380 745H248Z" />
<glyph unicode="&#xcb;" horiz-adv-x="699" d="M28 0L150 687H718L693 547H305L282 418H621L597 281H258L233 140H628L603 0H28ZM276 751L297 877H429L408 751H276ZM488 751L510 877H643L621 751H488Z" />
<glyph unicode="&#xcc;" horiz-adv-x="329" d="M28 0L150 687H329L208 0H28ZM197 745L83 874L85 877H250L315 745H197Z" />
<glyph unicode="&#xcd;" horiz-adv-x="329" d="M28 0L150 687H329L208 0H28ZM176 745L287 877H460L461 874L302 745H176Z" />
<glyph unicode="&#xce;" horiz-adv-x="329" d="M28 0L150 687H329L208 0H28ZM51 745L196 877H343L440 745H313L237 841H294L183 745H51Z" />
<glyph unicode="&#xcf;" horiz-adv-x="329" d="M28 0L150 687H329L208 0H28ZM78 751L100 877H232L210 751H78ZM291 751L312 877H445L423 751H291Z" />
<glyph unicode="&#xd0;" horiz-adv-x="755" d="M4 288L26 408H413L392 288H4ZM29 0L150 687H425Q573 687 653 622T733 420Q733 398 731 375T725 327Q706 220 655 147T523 37T335 0H29ZM233 140H335Q377 140 411 152T470 187T512 243T536 319Q542 349 544 366T548
395T549 414Q549 458 534 487T487 532T409 547H304L233 140Z" />
<glyph unicode="&#xd1;" horiz-adv-x="787" d="M28 0L150 687H308L495 362Q503 349 512 333T530 301T546 272L551 274Q553 292 556 310T561 343L621 687H787L666 0H509L315 332Q306 347 293 371T270 413L265 412Q263 393 259 371T253 334L195 0H28ZM284 746Q291
780 308 810T354 858T421 877Q453 877 478 868T528 850T577 840Q593 840 605 849T626 877H701Q695 844 677 814T631 765T563 746Q532 746 507 755T457 774T408 784Q392 784 379 774T359 746H284Z" />
<glyph unicode="&#xd2;" horiz-adv-x="810" d="M369 -12Q268 -12 197 18T88 109T50 260Q50 283 52 305T59 351Q78 463 129 540T265 658T468 699Q570 699 641 669T750 577T788 425Q788 404 786 382T780 338Q761 225 709 147T571 29T369 -12ZM378 128Q423 128 459
141T521 180T565 241T591 323Q595 346 597 362T601 388T603 406T604 420Q604 463 588 494T539 542T458 559Q414 559 378 546T316 508T272 446T246 365Q242 341 240 325T236 299T235 281T234 267Q234 224 250 193T298 145T378 128ZM438 745L324 874L325 877H491L555
745H438Z" />
<glyph unicode="&#xd3;" horiz-adv-x="810" d="M369 -12Q268 -12 197 18T88 109T50 260Q50 283 52 305T59 351Q78 463 129 540T265 658T468 699Q570 699 641 669T750 577T788 425Q788 404 786 382T780 338Q761 225 709 147T571 29T369 -12ZM378 128Q423 128 459
141T521 180T565 241T591 323Q595 346 597 362T601 388T603 406T604 420Q604 463 588 494T539 542T458 559Q414 559 378 546T316 508T272 446T246 365Q242 341 240 325T236 299T235 281T234 267Q234 224 250 193T298 145T378 128ZM417 745L528 877H701L702 874L542
745H417Z" />
<glyph unicode="&#xd4;" horiz-adv-x="810" d="M369 -12Q268 -12 197 18T88 109T50 260Q50 283 52 305T59 351Q78 463 129 540T265 658T468 699Q570 699 641 669T750 577T788 425Q788 404 786 382T780 338Q761 225 709 147T571 29T369 -12ZM378 128Q423 128 459
141T521 180T565 241T591 323Q595 346 597 362T601 388T603 406T604 420Q604 463 588 494T539 542T458 559Q414 559 378 546T316 508T272 446T246 365Q242 341 240 325T236 299T235 281T234 267Q234 224 250 193T298 145T378 128ZM291 745L437 877H584L680 745H554L478
841H535L423 745H291Z" />
<glyph unicode="&#xd5;" horiz-adv-x="810" d="M369 -12Q268 -12 197 18T88 109T50 260Q50 283 52 305T59 351Q78 463 129 540T265 658T468 699Q570 699 641 669T750 577T788 425Q788 404 786 382T780 338Q761 225 709 147T571 29T369 -12ZM378 128Q423 128 459
141T521 180T565 241T591 323Q595 346 597 362T601 388T603 406T604 420Q604 463 588 494T539 542T458 559Q414 559 378 546T316 508T272 446T246 365Q242 341 240 325T236 299T235 281T234 267Q234 224 250 193T298 145T378 128ZM294 746Q300 780 317 810T363
858T430 877Q462 877 488 868T537 850T586 840Q603 840 615 849T635 877H710Q705 844 687 814T640 765T573 746Q541 746 516 755T467 774T417 784Q401 784 389 774T369 746H294Z" />
<glyph unicode="&#xd6;" horiz-adv-x="810" d="M369 -12Q268 -12 197 18T88 109T50 260Q50 283 52 305T59 351Q78 463 129 540T265 658T468 699Q570 699 641 669T750 577T788 425Q788 404 786 382T780 338Q761 225 709 147T571 29T369 -12ZM378 128Q423 128 459
141T521 180T565 241T591 323Q595 346 597 362T601 388T603 406T604 420Q604 463 588 494T539 542T458 559Q414 559 378 546T316 508T272 446T246 365Q242 341 240 325T236 299T235 281T234 267Q234 224 250 193T298 145T378 128ZM319 751L340 877H473L451 751H319ZM531
751L553 877H686L664 751H531Z" />
<glyph unicode="&#xd7;" horiz-adv-x="649" d="M128 18L54 103L244 261L113 418L202 500L332 342L519 502L594 417L404 258L535 101L444 20L316 177L128 18Z" />
<glyph unicode="&#xd8;" horiz-adv-x="810" d="M369 -12Q268 -12 197 18T88 109T50 260Q50 283 52 305T59 351Q78 463 129 540T265 658T468 699Q570 699 641 669T750 577T788 425Q788 404 786 382T780 338Q761 225 709 147T571 29T369 -12ZM378 128Q423 128 459
141T521 180T565 241T591 323Q595 346 597 362T601 388T603 406T604 420Q604 463 588 494T539 542T458 559Q414 559 378 546T316 508T272 446T246 365Q242 341 240 325T236 299T235 281T234 267Q234 224 250 193T298 145T378 128ZM-3 -42L728 729H840L109 -42H-3Z"
/>
<glyph unicode="&#xd9;" horiz-adv-x="783" d="M357 -12Q221 -12 145 43T69 209Q69 224 70 240T75 273L148 687H327L254 271Q253 263 252 253T250 234Q250 184 279 156T367 128Q435 128 477 166T532 270L606 687H785L710 261Q694 170 648 109T529 18T357 -12ZM428
745L315 874L316 877H482L546 745H428Z" />
<glyph unicode="&#xda;" horiz-adv-x="783" d="M357 -12Q221 -12 145 43T69 209Q69 224 70 240T75 273L148 687H327L254 271Q253 263 252 253T250 234Q250 184 279 156T367 128Q435 128 477 166T532 270L606 687H785L710 261Q694 170 648 109T529 18T357 -12ZM408
745L519 877H692L693 874L533 745H408Z" />
<glyph unicode="&#xdb;" horiz-adv-x="783" d="M357 -12Q221 -12 145 43T69 209Q69 224 70 240T75 273L148 687H327L254 271Q253 263 252 253T250 234Q250 184 279 156T367 128Q435 128 477 166T532 270L606 687H785L710 261Q694 170 648 109T529 18T357 -12ZM282
745L427 877H574L671 745H545L469 841H526L414 745H282Z" />
<glyph unicode="&#xdc;" horiz-adv-x="783" d="M357 -12Q221 -12 145 43T69 209Q69 224 70 240T75 273L148 687H327L254 271Q253 263 252 253T250 234Q250 184 279 156T367 128Q435 128 477 166T532 270L606 687H785L710 261Q694 170 648 109T529 18T357 -12ZM310
751L331 877H464L442 751H310ZM522 751L544 877H677L655 751H522Z" />
<glyph unicode="&#xdd;" horiz-adv-x="732" d="M232 0L280 272L84 687H277L392 429H397L598 687H799L459 272L411 0H232ZM377 745L488 877H661V874L502 745H377Z" />
<glyph unicode="&#xde;" horiz-adv-x="707" d="M28 0L150 687H329L311 582H467Q537 582 584 559T654 493T678 393Q678 335 659 286T605 202T522 147T414 127H231L208 0H28ZM255 265H386Q420 265 444 278T481 315T495 371Q495 406 475 424T413 443H286L255 265Z" />
<glyph unicode="&#xdf;" horiz-adv-x="648" d="M16 0L108 520Q118 575 141 615T201 683T284 723T390 736Q438 736 480 726T554 696T605 644T624 571Q624 530 608 496T563 436T492 398V393Q540 376 565 333T591 234Q591 180 571 137T515 63T428 16T316 0H236L257
120H307Q342 120 369 136T411 178T427 236Q427 261 416 281T386 314T341 327H293L316 452H363Q390 452 412 464T447 497T460 547Q460 577 440 597T380 618Q352 618 330 607T293 576T272 527L180 0H16Z" />
<glyph unicode="&#xe0;" horiz-adv-x="630" d="M210 -12Q153 -12 111 10T47 77T24 185Q24 205 26 226T32 272Q48 363 82 422T168 510T283 539Q317 539 345 531T396 507T433 463H440L479 527H611L587 398Q581 362 574 325T561 255T550 195T543 151T540 129Q540
115 547 109T567 102H598L581 6Q564 -1 541 -6T493 -12Q463 -12 441 -4T404 23Q397 31 393 43T386 68H379Q347 29 303 9T210 -12ZM274 116Q299 116 320 126T357 154T384 197T400 252Q404 272 405 284T407 305T408 320Q408 348 400 368T373 400T326 411Q289 411
264 397T224 353T201 281Q196 255 194 240T191 216T190 200Q190 159 209 138T274 116ZM300 592L193 721L195 724H356L417 592H300Z" />
<glyph unicode="&#xe1;" horiz-adv-x="630" d="M210 -12Q153 -12 111 10T47 77T24 185Q24 205 26 226T32 272Q48 363 82 422T168 510T283 539Q317 539 345 531T396 507T433 463H440L479 527H611L587 398Q581 362 574 325T561 255T550 195T543 151T540 129Q540
115 547 109T567 102H598L581 6Q564 -1 541 -6T493 -12Q463 -12 441 -4T404 23Q397 31 393 43T386 68H379Q347 29 303 9T210 -12ZM274 116Q299 116 320 126T357 154T384 197T400 252Q404 272 405 284T407 305T408 320Q408 348 400 368T373 400T326 411Q289 411
264 397T224 353T201 281Q196 255 194 240T191 216T190 200Q190 159 209 138T274 116ZM280 592L387 724H558V721L402 592H280Z" />
<glyph unicode="&#xe2;" horiz-adv-x="630" d="M210 -12Q153 -12 111 10T47 77T24 185Q24 205 26 226T32 272Q48 363 82 422T168 510T283 539Q317 539 345 531T396 507T433 463H440L479 527H611L587 398Q581 362 574 325T561 255T550 195T543 151T540 129Q540
115 547 109T567 102H598L581 6Q564 -1 541 -6T493 -12Q463 -12 441 -4T404 23Q397 31 393 43T386 68H379Q347 29 303 9T210 -12ZM274 116Q299 116 320 126T357 154T384 197T400 252Q404 272 405 284T407 305T408 320Q408 348 400 368T373 400T326 411Q289 411
264 397T224 353T201 281Q196 255 194 240T191 216T190 200Q190 159 209 138T274 116ZM162 592L307 724H450L547 592H422L346 687H403L292 592H162Z" />
<glyph unicode="&#xe3;" horiz-adv-x="630" d="M210 -12Q153 -12 111 10T47 77T24 185Q24 205 26 226T32 272Q48 363 82 422T168 510T283 539Q317 539 345 531T396 507T433 463H440L479 527H611L587 398Q581 362 574 325T561 255T550 195T543 151T540 129Q540
115 547 109T567 102H598L581 6Q564 -1 541 -6T493 -12Q463 -12 441 -4T404 23Q397 31 393 43T386 68H379Q347 29 303 9T210 -12ZM274 116Q299 116 320 126T357 154T384 197T400 252Q404 272 405 284T407 305T408 320Q408 348 400 368T373 400T326 411Q289 411
264 397T224 353T201 281Q196 255 194 240T191 216T190 200Q190 159 209 138T274 116ZM153 593Q160 627 177 657T223 705T290 724Q322 724 348 715T397 696T446 686Q463 686 475 696T495 724H570Q564 690 546 660T500 612T432 593Q401 593 376 602T327 621T277
631Q261 631 248 621T228 593H153Z" />
<glyph unicode="&#xe4;" horiz-adv-x="630" d="M210 -12Q153 -12 111 10T47 77T24 185Q24 205 26 226T32 272Q48 363 82 422T168 510T283 539Q317 539 345 531T396 507T433 463H440L479 527H611L587 398Q581 362 574 325T561 255T550 195T543 151T540 129Q540
115 547 109T567 102H598L581 6Q564 -1 541 -6T493 -12Q463 -12 441 -4T404 23Q397 31 393 43T386 68H379Q347 29 303 9T210 -12ZM274 116Q299 116 320 126T357 154T384 197T400 252Q404 272 405 284T407 305T408 320Q408 348 400 368T373 400T326 411Q289 411
264 397T224 353T201 281Q196 255 194 240T191 216T190 200Q190 159 209 138T274 116ZM186 598L208 724H340L318 598H186ZM399 598L420 724H553L531 598H399Z" />
<glyph unicode="&#xe5;" horiz-adv-x="630" d="M210 -12Q153 -12 111 10T47 77T24 185Q24 205 26 226T32 272Q48 363 82 422T168 510T283 539Q317 539 345 531T396 507T433 463H440L479 527H611L587 398Q581 362 574 325T561 255T550 195T543 151T540 129Q540
115 547 109T567 102H598L581 6Q564 -1 541 -6T493 -12Q463 -12 441 -4T404 23Q397 31 393 43T386 68H379Q347 29 303 9T210 -12ZM274 116Q299 116 320 126T357 154T384 197T400 252Q404 272 405 284T407 305T408 320Q408 348 400 368T373 400T326 411Q289 411
264 397T224 353T201 281Q196 255 194 240T191 216T190 200Q190 159 209 138T274 116ZM360 578Q321 578 295 603T268 668Q268 719 301 753T387 787Q426 787 452 762T478 697Q478 663 463 636T422 594T360 578ZM366 638Q380 638 391 644T408 662T415 687Q415 705
405 715T379 726Q366 726 355 720T337 702T330 676Q330 659 340 649T366 638Z" />
<glyph unicode="&#xe6;" horiz-adv-x="956" d="M207 -12Q169 -12 133 -6T68 15T23 55T6 119Q6 170 24 206T77 264T160 299T268 317T397 322L402 355Q403 360 403 364T403 373Q403 399 385 412T330 426Q302 426 281 421T248 406T232 377L230 366H69Q69 369 69 373T70
380Q77 434 115 469T210 521T336 539Q397 539 445 527T522 488Q557 513 599 526T694 539Q769 539 820 516T898 448T925 337Q925 316 922 290T912 231H546Q544 220 543 211T542 191Q542 162 551 142T581 111T634 101Q658 101 677 107T710 124T732 151T744 188H904Q896
140 876 103T821 40T741 1T637 -12Q563 -12 508 6T421 63Q394 42 362 25T291 -2T207 -12ZM241 100Q266 100 289 107T330 129T360 161T375 202L381 231Q317 231 271 223T200 195T175 144Q175 129 183 119T206 105T241 100ZM563 322H761Q763 330 763 337T764 349Q764
375 755 392T728 417T686 426Q653 426 629 414T589 378T563 322Z" />
<glyph unicode="&#xe7;" horiz-adv-x="612" d="M280 -12Q200 -12 145 11T61 81T32 200Q32 225 34 249T42 296Q53 353 78 397T142 474T232 522T345 539Q417 539 471 519T555 461T586 367Q586 356 585 345T582 321H421Q422 328 422 334T423 346Q423 370 414 386T386
412T338 421Q300 421 274 404T231 357T208 284Q203 258 201 242T197 217T196 200Q196 169 206 149T236 118T288 107Q322 107 346 118T386 152T408 207H562Q550 133 511 84T413 12T280 -12ZM232 -198Q202 -198 170 -195T116 -185L126 -132H224Q244 -132 257 -128T270
-103Q270 -93 263 -89T235 -85H193L230 26H318L299 -31Q327 -34 351 -48T375 -95Q375 -127 360 -147T323 -178T276 -194T232 -198Z" />
<glyph unicode="&#xe8;" horiz-adv-x="619" d="M290 -12Q207 -12 150 10T62 80T32 199Q32 224 34 247T41 294Q55 370 94 424T196 509T342 539Q422 539 476 518T559 452T587 339Q587 320 585 295T574 231H196Q194 222 193 212T192 192Q192 163 202 143T234 112T290
102Q316 102 336 107T370 124T393 152T406 188H566Q558 140 536 103T478 40T395 1T290 -12ZM212 322H422Q424 329 424 336T425 349Q425 375 416 392T388 417T344 426Q309 426 283 414T240 378T212 322ZM294 592L187 721L189 724H351L411 592H294Z" />
<glyph unicode="&#xe9;" horiz-adv-x="619" d="M290 -12Q207 -12 150 10T62 80T32 199Q32 224 34 247T41 294Q55 370 94 424T196 509T342 539Q422 539 476 518T559 452T587 339Q587 320 585 295T574 231H196Q194 222 193 212T192 192Q192 163 202 143T234 112T290
102Q316 102 336 107T370 124T393 152T406 188H566Q558 140 536 103T478 40T395 1T290 -12ZM212 322H422Q424 329 424 336T425 349Q425 375 416 392T388 417T344 426Q309 426 283 414T240 378T212 322ZM274 592L382 724H552L553 721L396 592H274Z" />
<glyph unicode="&#xea;" horiz-adv-x="619" d="M290 -12Q207 -12 150 10T62 80T32 199Q32 224 34 247T41 294Q55 370 94 424T196 509T342 539Q422 539 476 518T559 452T587 339Q587 320 585 295T574 231H196Q194 222 193 212T192 192Q192 163 202 143T234 112T290
102Q316 102 336 107T370 124T393 152T406 188H566Q558 140 536 103T478 40T395 1T290 -12ZM212 322H422Q424 329 424 336T425 349Q425 375 416 392T388 417T344 426Q309 426 283 414T240 378T212 322ZM156 592L301 724H444L541 592H416L340 687H397L286 592H156Z"
/>
<glyph unicode="&#xeb;" horiz-adv-x="619" d="M290 -12Q207 -12 150 10T62 80T32 199Q32 224 34 247T41 294Q55 370 94 424T196 509T342 539Q422 539 476 518T559 452T587 339Q587 320 585 295T574 231H196Q194 222 193 212T192 192Q192 163 202 143T234 112T290
102Q316 102 336 107T370 124T393 152T406 188H566Q558 140 536 103T478 40T395 1T290 -12ZM212 322H422Q424 329 424 336T425 349Q425 375 416 392T388 417T344 426Q309 426 283 414T240 378T212 322ZM181 598L202 724H334L313 598H181ZM393 598L415 724H547L525
598H393Z" />
<glyph unicode="&#xec;" horiz-adv-x="288" d="M16 0L109 527H273L180 0H16ZM145 592L38 721L40 724H201L262 592H145Z" />
<glyph unicode="&#xed;" horiz-adv-x="288" d="M16 0L109 527H273L180 0H16ZM125 592L233 724H403V721L247 592H125Z" />
<glyph unicode="&#xee;" horiz-adv-x="288" d="M16 0L109 527H273L180 0H16ZM7 592L152 724H295L392 592H267L191 687H248L137 592H7Z" />
<glyph unicode="&#xef;" horiz-adv-x="288" d="M16 0L109 527H273L180 0H16ZM31 598L53 724H185L163 598H31ZM244 598L265 724H398L376 598H244Z" />
<glyph unicode="&#xf0;" horiz-adv-x="643" d="M286 -12Q206 -12 149 11T62 82T31 199Q31 282 58 351T135 464Q152 480 171 491T213 510T259 522T308 527Q332 527 355 523T401 512L407 518Q398 537 387 555T362 592L196 577L209 650L310 660Q292 679 276 693T246
718L250 724H414Q429 713 442 701T468 676L626 690L613 616L524 609Q560 558 587 494T614 351Q614 292 604 239T572 143Q547 95 508 60T413 7T286 -12ZM292 107Q337 107 366 124T413 178T441 271Q443 279 444 286T445 299T446 312T447 323Q447 354 437 374T405
405T349 416Q305 416 276 399T229 345T202 252Q200 241 199 232T197 214T196 199Q196 170 206 149T237 118T292 107Z" />
<glyph unicode="&#xf1;" horiz-adv-x="629" d="M16 0L109 527H243V451H250Q272 479 301 498T363 528T431 539Q481 539 516 524T570 478T589 400Q589 385 587 369T582 334L523 0H359L415 317Q416 326 417 334T419 350Q419 370 412 383T390 403T356 410Q334 410
313 403T276 380T249 344T233 297L180 0H16ZM176 593Q183 627 200 657T246 705T313 724Q345 724 370 715T420 696T469 686Q485 686 497 696T517 724H593Q587 690 569 660T523 612T455 593Q424 593 398 602T349 621T300 631Q284 631 271 621T251 593H176Z" />
<glyph unicode="&#xf2;" horiz-adv-x="635" d="M278 -12Q200 -12 145 11T60 81T30 199Q30 219 32 239T38 280Q53 368 95 425T203 511T355 539Q435 539 490 516T575 446T605 327Q605 280 595 241T564 170Q540 108 500 68T405 8T278 -12ZM290 107Q331 107 358 123T403
169T428 245Q433 272 435 287T438 312T439 328Q439 358 429 378T399 409T344 420Q303 420 276 404T231 358T206 282Q201 255 199 239T195 215T194 199Q194 169 204 149T235 118T290 107ZM318 592L212 721L214 724H375L436 592H318Z" />
<glyph unicode="&#xf3;" horiz-adv-x="635" d="M278 -12Q200 -12 145 11T60 81T30 199Q30 219 32 239T38 280Q53 368 95 425T203 511T355 539Q435 539 490 516T575 446T605 327Q605 280 595 241T564 170Q540 108 500 68T405 8T278 -12ZM290 107Q331 107 358 123T403
169T428 245Q433 272 435 287T438 312T439 328Q439 358 429 378T399 409T344 420Q303 420 276 404T231 358T206 282Q201 255 199 239T195 215T194 199Q194 169 204 149T235 118T290 107ZM298 592L406 724H576L577 721L421 592H298Z" />
<glyph unicode="&#xf4;" horiz-adv-x="635" d="M278 -12Q200 -12 145 11T60 81T30 199Q30 219 32 239T38 280Q53 368 95 425T203 511T355 539Q435 539 490 516T575 446T605 327Q605 280 595 241T564 170Q540 108 500 68T405 8T278 -12ZM290 107Q331 107 358 123T403
169T428 245Q433 272 435 287T438 312T439 328Q439 358 429 378T399 409T344 420Q303 420 276 404T231 358T206 282Q201 255 199 239T195 215T194 199Q194 169 204 149T235 118T290 107ZM180 592L325 724H469L566 592H440L364 687H421L310 592H180Z" />
<glyph unicode="&#xf5;" horiz-adv-x="635" d="M278 -12Q200 -12 145 11T60 81T30 199Q30 219 32 239T38 280Q53 368 95 425T203 511T355 539Q435 539 490 516T575 446T605 327Q605 280 595 241T564 170Q540 108 500 68T405 8T278 -12ZM290 107Q331 107 358 123T403
169T428 245Q433 272 435 287T438 312T439 328Q439 358 429 378T399 409T344 420Q303 420 276 404T231 358T206 282Q201 255 199 239T195 215T194 199Q194 169 204 149T235 118T290 107ZM172 593Q178 627 195 657T242 705T309 724Q340 724 366 715T415 696T464
686Q481 686 493 696T513 724H589Q583 690 565 660T518 612T451 593Q419 593 394 602T345 621T296 631Q280 631 267 621T247 593H172Z" />
<glyph unicode="&#xf6;" horiz-adv-x="635" d="M278 -12Q200 -12 145 11T60 81T30 199Q30 219 32 239T38 280Q53 368 95 425T203 511T355 539Q435 539 490 516T575 446T605 327Q605 280 595 241T564 170Q540 108 500 68T405 8T278 -12ZM290 107Q331 107 358 123T403
169T428 245Q433 272 435 287T438 312T439 328Q439 358 429 378T399 409T344 420Q303 420 276 404T231 358T206 282Q201 255 199 239T195 215T194 199Q194 169 204 149T235 118T290 107ZM205 598L227 724H359L337 598H205ZM417 598L439 724H571L550 598H417Z" />
<glyph unicode="&#xf7;" horiz-adv-x="649" d="M62 201L83 317H586L565 201H62ZM219 8L240 128H363L342 8H219ZM286 389L307 509H430L409 389H286Z" />
<glyph unicode="&#xf8;" horiz-adv-x="635" d="M278 -12Q200 -12 145 11T60 81T30 199Q30 219 32 239T38 280Q53 368 95 425T203 511T355 539Q435 539 490 516T575 446T605 327Q605 280 595 241T564 170Q540 108 500 68T405 8T278 -12ZM290 107Q331 107 358 123T403
169T428 245Q433 272 435 287T438 312T439 328Q439 358 429 378T399 409T344 420Q303 420 276 404T231 358T206 282Q201 255 199 239T195 215T194 199Q194 169 204 149T235 118T290 107ZM-12 -43L560 570H647L76 -43H-12Z" />
<glyph unicode="&#xf9;" horiz-adv-x="629" d="M196 -13Q147 -13 112 2T58 48T39 126Q39 142 41 158T46 193L104 527H269L213 209Q211 200 210 192T209 177Q209 156 216 143T238 123T272 116Q294 116 314 124T351 147T378 183T395 229L448 527H612L519 -1H385V75H378Q356
48 327 28T265 -2T196 -13ZM311 592L204 721L206 724H368L429 592H311Z" />
<glyph unicode="&#xfa;" horiz-adv-x="629" d="M196 -13Q147 -13 112 2T58 48T39 126Q39 142 41 158T46 193L104 527H269L213 209Q211 200 210 192T209 177Q209 156 216 143T238 123T272 116Q294 116 314 124T351 147T378 183T395 229L448 527H612L519 -1H385V75H378Q356
48 327 28T265 -2T196 -13ZM291 592L399 724H569L570 721L414 592H291Z" />
<glyph unicode="&#xfb;" horiz-adv-x="629" d="M196 -13Q147 -13 112 2T58 48T39 126Q39 142 41 158T46 193L104 527H269L213 209Q211 200 210 192T209 177Q209 156 216 143T238 123T272 116Q294 116 314 124T351 147T378 183T395 229L448 527H612L519 -1H385V75H378Q356
48 327 28T265 -2T196 -13ZM173 592L318 724H462L558 592H433L357 687H414L303 592H173Z" />
<glyph unicode="&#xfc;" horiz-adv-x="629" d="M196 -13Q147 -13 112 2T58 48T39 126Q39 142 41 158T46 193L104 527H269L213 209Q211 200 210 192T209 177Q209 156 216 143T238 123T272 116Q294 116 314 124T351 147T378 183T395 229L448 527H612L519 -1H385V75H378Q356
48 327 28T265 -2T196 -13ZM198 598L220 724H351L330 598H198ZM410 598L432 724H564L542 598H410Z" />
<glyph unicode="&#xfd;" horiz-adv-x="574" d="M70 -197Q32 -197 5 -192T-33 -182L-15 -77H54Q83 -77 104 -66T140 -38T165 0L49 527H217L254 301Q258 279 261 253T268 202T274 155H281Q288 172 295 190T311 227T326 263T341 295L449 527H618L351 21Q327 -25 299
-64T238 -134T163 -180T70 -197ZM264 592L372 724H542L543 721L387 592H264Z" />
<glyph unicode="&#xfe;" horiz-adv-x="632" d="M-17 -186L143 724H307L263 473H269Q290 496 313 510T364 532T423 539Q478 539 518 516T581 449T603 341Q603 319 601 296T595 249Q580 167 547 109T461 19T339 -12Q306 -12 279 -5T231 18T196 53H189L147 -186H-17ZM302
112Q339 112 364 129T406 179T430 255Q433 269 434 280T436 302T437 322Q437 350 429 370T402 400T353 411Q319 411 293 393T250 343T225 268Q224 257 223 246T221 226T220 207Q220 179 228 158T255 124T302 112Z" />
<glyph unicode="&#xff;" horiz-adv-x="574" d="M70 -197Q32 -197 5 -192T-33 -182L-15 -77H54Q83 -77 104 -66T140 -38T165 0L49 527H217L254 301Q258 279 261 253T268 202T274 155H281Q288 172 295 190T311 227T326 263T341 295L449 527H618L351 21Q327 -25 299
-64T238 -134T163 -180T70 -197ZM171 598L193 724H324L303 598H171ZM383 598L405 724H537L515 598H383Z" />
<glyph unicode="&#x2013;" horiz-adv-x="500" d="M-9 209L11 325H510L490 209H-9Z" />
<glyph unicode="&#x2014;" horiz-adv-x="1000" d="M-9 209L11 325H1010L990 209H-9Z" />
<glyph unicode="&#x2018;" horiz-adv-x="279" d="M299 687L287 623Q263 621 242 605T206 565T186 511H263L236 357H77L102 494Q113 557 142 598T212 662T299 687Z" />
<glyph unicode="&#x2019;" horiz-adv-x="279" d="M72 357L84 421Q107 424 128 439T165 480T185 534H107L134 687H293L269 550Q258 488 229 446T158 383T72 357Z" />
<glyph unicode="&#x201a;" horiz-adv-x="279" d="M-23 -177L-10 -113Q13 -110 34 -94T70 -54T91 0H13L40 154H199L174 16Q164 -46 135 -87T64 -151T-23 -177Z" />
<glyph unicode="&#x201c;" horiz-adv-x="496" d="M516 687L504 623Q480 621 459 605T423 565T403 511H481L453 357H295L319 494Q330 557 359 598T429 662T516 687ZM299 687L287 623Q263 621 242 605T206 565T186 511H263L236 357H77L102 494Q113 557 142 598T212
662T299 687Z" />
<glyph unicode="&#x201d;" horiz-adv-x="496" d="M72 357L84 421Q107 424 128 439T165 480T185 534H107L134 687H293L269 550Q258 488 229 446T158 383T72 357ZM289 357L301 421Q324 424 345 439T382 480T402 534H324L352 687H510L486 550Q475 488 446 446T375
383T289 357Z" />
<glyph unicode="&#x201e;" horiz-adv-x="496" d="M-23 -177L-10 -113Q13 -110 34 -94T70 -54T91 0H13L40 154H199L174 16Q164 -46 135 -87T64 -151T-23 -177ZM195 -177L207 -113Q230 -110 251 -94T288 -54T308 0H230L257 154H416L392 16Q381 -46 352 -87T281 -151T195
-177Z" />
<glyph unicode="&#x2022;" horiz-adv-x="466" d="M223 197Q188 197 160 211T114 253T97 320Q97 370 119 409T181 470T272 492Q307 492 336 478T381 435T398 367Q398 318 376 280T314 219T223 197Z" />
<glyph unicode="&#x2039;" horiz-adv-x="358" d="M170 122L51 325L237 527H360L198 325L289 122H170Z" />
<glyph unicode="&#x203a;" horiz-adv-x="357" d="M209 530L329 327L142 125H19L181 327L90 530H209Z" />
</font>
</defs>
</svg>
